<?xml version="1.0" standalone="no"?>
 <!DOCTYPE svg PUBLIC "-//W3C//DTD SVG 1.1//EN" 
 "http://www.w3.org/Graphics/SVG/1.1/DTD/svg11.dtd"> 
<svg
  xmlns:svg="http://www.w3.org/2000/svg"
  xmlns="http://www.w3.org/2000/svg"
  xmlns:xlink="http://www.w3.org/1999/xlink"
  version="1.1"
  width="9.387840cm" height="7.249160cm" viewBox="0 0 93878400 72491600">
<title>SVG Picture created as SensorBoardRH-F_Cu.svg date 2023/08/16 18:19:26 </title>
  <desc>Picture generated by PCBNEW </desc>
<g style="fill:#000000; fill-opacity:1.000000;stroke:#000000; stroke-opacity:1.000000;
stroke-linecap:round; stroke-linejoin:round;"
 transform="translate(0 0) scale(1 1)">
</g>
<g style="fill:#000000; fill-opacity:0.0; 
stroke:#000000; stroke-width:0.000000; stroke-opacity:1; 
stroke-linecap:round; stroke-linejoin:round;">
</g>
<g style="fill:#000000; fill-opacity:1.0; 
stroke:#000000; stroke-width:1.000000; stroke-opacity:1; 
stroke-linecap:round; stroke-linejoin:round;">
<circle cx="64864617.000000" cy="59051378.000000" r="4159913.000000" /> 
<circle cx="66279704.000000" cy="58791378.000000" r="4159913.000000" /> 
</g>
<g style="fill:#000000; fill-opacity:1.0; 
stroke:#000000; stroke-width:2000.000000; stroke-opacity:1; 
stroke-linecap:round; stroke-linejoin:round;">
<path style="fill:#000000; fill-opacity:1.0; 
stroke:#000000; stroke-width:2000.000000; stroke-opacity:1; 
stroke-linecap:round; stroke-linejoin:round;fill-rule:evenodd;"
d="M 60190577.000000,59379231.000000
60187159.000000,59224473.000000
60948028.000000,59224473.000000
60953386.000000,59385857.000000
60967729.000000,59546216.000000
60991002.000000,59705301.000000
61023147.000000,59862860.000000
61064110.000000,60018641.000000
61113835.000000,60172396.000000
61172266.000000,60323875.000000
61239346.000000,60472826.000000
61315021.000000,60618999.000000
61399232.000000,60762144.000000
61491926.000000,60902010.000000
61593045.000000,61038348.000000
61702533.000000,61170906.000000
61820336.000000,61299435.000000
61946397.000000,61423683.000000
62080660.000000,61543400.000000
62266578.000000,61680301.000000
62455449.000000,61807515.000000
62647278.000000,61925029.000000
62842075.000000,62032826.000000
63039846.000000,62130890.000000
63240596.000000,62219205.000000
63444334.000000,62297754.000000
63651067.000000,62366521.000000
63860802.000000,62425491.000000
64073546.000000,62474648.000000
64289304.000000,62513976.000000
64508088.000000,62543457.000000
64729900.000000,62563077.000000
64954750.000000,62572819.000000
65182643.000000,62572667.000000
65413588.000000,62562605.000000
65689001.000000,62540059.000000
65960168.000000,62508026.000000
66226908.000000,62466130.000000
66489043.000000,62413993.000000
66746397.000000,62351239.000000
66998790.000000,62277490.000000
67246043.000000,62192368.000000
67487980.000000,62095499.000000
67724422.000000,61986503.000000
67955192.000000,61865002.000000
68180112.000000,61730623.000000
68399000.000000,61582985.000000
68611682.000000,61421713.000000
68817979.000000,61246428.000000
69017714.000000,61056754.000000
69210705.000000,60852315.000000
69330351.000000,60713548.000000
69443085.000000,60572213.000000
69548580.000000,60428217.000000
69646507.000000,60281460.000000
69736535.000000,60131849.000000
69818335.000000,59979287.000000
69891577.000000,59823679.000000
69955934.000000,59664929.000000
70011074.000000,59502942.000000
70056671.000000,59337619.000000
70092392.000000,59168868.000000
70117909.000000,58996590.000000
70126738.000000,58909100.000000
70132893.000000,58820692.000000
70136333.000000,58731355.000000
70137015.000000,58641076.000000
70134900.000000,58549844.000000
70129945.000000,58457647.000000
70122110.000000,58364473.000000
70111354.000000,58270309.000000
70075570.000000,58048890.000000
70026930.000000,57837148.000000
69965770.000000,57634873.000000
69892424.000000,57441848.000000
69807231.000000,57257859.000000
69710524.000000,57082695.000000
69602642.000000,56916141.000000
69483919.000000,56757982.000000
69354692.000000,56608004.000000
69215299.000000,56465996.000000
69066072.000000,56331740.000000
68907349.000000,56205023.000000
68739469.000000,56085634.000000
68562763.000000,55973356.000000
68377571.000000,55867976.000000
68184227.000000,55769281.000000
67811072.000000,55607437.000000
67427058.000000,55476653.000000
67034358.000000,55376571.000000
66635154.000000,55306834.000000
66231621.000000,55267088.000000
65825939.000000,55256975.000000
65420284.000000,55276137.000000
65016835.000000,55324220.000000
64617771.000000,55400866.000000
64225267.000000,55505720.000000
63841501.000000,55638422.000000
63468653.000000,55798620.000000
63108901.000000,55985955.000000
62764420.000000,56200069.000000
62437390.000000,56440609.000000
62129989.000000,56707215.000000
61983968.000000,56850949.000000
61847830.000000,56997664.000000
61721515.000000,57147110.000000
61604971.000000,57299037.000000
61498139.000000,57453193.000000
61400963.000000,57609328.000000
61313388.000000,57767192.000000
61235358.000000,57926536.000000
61166818.000000,58087108.000000
61107711.000000,58248658.000000
61057981.000000,58410936.000000
61017572.000000,58573690.000000
60986428.000000,58736671.000000
60964493.000000,58899629.000000
60951712.000000,59062313.000000
60948028.000000,59224473.000000
60187159.000000,59224473.000000
60185148.000000,59133385.000000
60197285.000000,58889818.000000
60226668.000000,58648580.000000
60272977.000000,58409719.000000
60335887.000000,58173282.000000
60415083.000000,57939316.000000
60510241.000000,57707869.000000
60621041.000000,57478989.000000
60747161.000000,57252721.000000
60888283.000000,57029116.000000
61044086.000000,56808220.000000
61190854.000000,56618990.000000
61343672.000000,56438303.000000
61502470.000000,56266105.000000
61667177.000000,56102338.000000
61837724.000000,55946951.000000
62014042.000000,55799887.000000
62196059.000000,55661093.000000
62383706.000000,55530514.000000
62576914.000000,55408095.000000
62775612.000000,55293782.000000
62979730.000000,55187519.000000
63189198.000000,55089255.000000
63403947.000000,54998932.000000
63623905.000000,54916496.000000
63849005.000000,54841892.000000
64079175.000000,54775068.000000
64110956.000000,54766116.000000
64142869.000000,54756522.000000
64208360.000000,54735650.000000
64278210.000000,54712938.000000
64354978.000000,54688873.000000
64629830.000000,54632939.000000
64903209.000000,54586389.000000
65175113.000000,54549577.000000
65445533.000000,54522850.000000
65714462.000000,54506560.000000
65981896.000000,54501059.000000
66247827.000000,54506696.000000
66512248.000000,54523823.000000
66775155.000000,54552791.000000
67036538.000000,54593950.000000
67296395.000000,54647650.000000
67554717.000000,54714243.000000
67811498.000000,54794078.000000
68066731.000000,54887509.000000
68320412.000000,54994885.000000
68572532.000000,55116556.000000
68783774.000000,55230466.000000
68986840.000000,55351465.000000
69181441.000000,55479694.000000
69367285.000000,55615292.000000
69544085.000000,55758403.000000
69711550.000000,55909169.000000
69869389.000000,56067729.000000
70017314.000000,56234227.000000
70155035.000000,56408803.000000
70282263.000000,56591598.000000
70398704.000000,56782756.000000
70504073.000000,56982415.000000
70598078.000000,57190719.000000
70680428.000000,57407808.000000
70750837.000000,57633825.000000
70809012.000000,57868911.000000
70850511.000000,58090888.000000
70878365.000000,58310185.000000
70892857.000000,58526784.000000
70894268.000000,58740666.000000
70882880.000000,58951820.000000
70858977.000000,59160222.000000
70822840.000000,59365860.000000
70774752.000000,59568717.000000
70714993.000000,59768774.000000
70643849.000000,59966017.000000
70561598.000000,60160427.000000
70468526.000000,60351988.000000
70364913.000000,60540685.000000
70251042.000000,60726499.000000
70127195.000000,60909413.000000
69993655.000000,61089414.000000
69845242.000000,61273037.000000
69691173.000000,61448148.000000
69531518.000000,61614853.000000
69366347.000000,61773265.000000
69195732.000000,61923493.000000
69019744.000000,62065646.000000
68838453.000000,62199833.000000
68651928.000000,62326167.000000
68460243.000000,62444756.000000
68263467.000000,62555710.000000
68061669.000000,62659142.000000
67854923.000000,62755157.000000
67643298.000000,62843868.000000
67426866.000000,62925385.000000
67205695.000000,62999816.000000
66979859.000000,63067272.000000
66729449.000000,63133245.000000
66479380.000000,63190418.000000
66229656.000000,63238575.000000
65980285.000000,63277494.000000
65731271.000000,63306958.000000
65482619.000000,63326751.000000
65234337.000000,63336652.000000
64986428.000000,63336444.000000
64738902.000000,63325908.000000
64491761.000000,63304825.000000
64245010.000000,63272978.000000
63998658.000000,63230148.000000
63752709.000000,63176116.000000
63507169.000000,63110665.000000
63262044.000000,63033575.000000
63017340.000000,62944629.000000
62807068.000000,62858658.000000
62602399.000000,62766005.000000
62403632.000000,62666448.000000
62211063.000000,62559758.000000
62024993.000000,62445711.000000
61845719.000000,62324080.000000
61673539.000000,62194641.000000
61508754.000000,62057167.000000
61351660.000000,61911432.000000
61202556.000000,61757211.000000
61061740.000000,61594277.000000
60929511.000000,61422406.000000
60806168.000000,61241371.000000
60692008.000000,61050946.000000
60587331.000000,60850906.000000
60492435.000000,60641025.000000
60394365.000000,60384484.000000
60315466.000000,60129986.000000
60255414.000000,59877580.000000
60248551.000000,59836215.000000
60213891.000000,59627313.000000
Z" /> 
</g>
<g style="fill:#000000; fill-opacity:1.0; 
stroke:#000000; stroke-width:1.000000; stroke-opacity:1; 
stroke-linecap:round; stroke-linejoin:round;">
<circle cx="49194196.000000" cy="60567977.000000" r="4159913.000000" /> 
<circle cx="47779109.000000" cy="60827977.000000" r="4159913.000000" /> 
</g>
<g style="fill:#000000; fill-opacity:1.0; 
stroke:#000000; stroke-width:2000.000000; stroke-opacity:1; 
stroke-linecap:round; stroke-linejoin:round;">
<path style="fill:#000000; fill-opacity:1.0; 
stroke:#000000; stroke-width:2000.000000; stroke-opacity:1; 
stroke-linecap:round; stroke-linejoin:round;fill-rule:evenodd;"
d="M 43105069.000000,61155830.000000
43101651.000000,61001072.000000
43862520.000000,61001072.000000
43867878.000000,61162456.000000
43882221.000000,61322815.000000
43905494.000000,61481900.000000
43937639.000000,61639459.000000
43978602.000000,61795240.000000
44028327.000000,61948995.000000
44086758.000000,62100474.000000
44153838.000000,62249425.000000
44229513.000000,62395598.000000
44313724.000000,62538743.000000
44406418.000000,62678609.000000
44507537.000000,62814947.000000
44617025.000000,62947505.000000
44734828.000000,63076034.000000
44860889.000000,63200282.000000
44995152.000000,63319999.000000
45181070.000000,63456900.000000
45369941.000000,63584114.000000
45561770.000000,63701628.000000
45756567.000000,63809425.000000
45954338.000000,63907489.000000
46155088.000000,63995804.000000
46358826.000000,64074353.000000
46565559.000000,64143120.000000
46775294.000000,64202090.000000
46988038.000000,64251247.000000
47203796.000000,64290575.000000
47422580.000000,64320056.000000
47644392.000000,64339676.000000
47869242.000000,64349418.000000
48097135.000000,64349266.000000
48328080.000000,64339204.000000
48603493.000000,64316658.000000
48874660.000000,64284625.000000
49141400.000000,64242729.000000
49403535.000000,64190592.000000
49660889.000000,64127838.000000
49913282.000000,64054089.000000
50160535.000000,63968967.000000
50402472.000000,63872098.000000
50638914.000000,63763102.000000
50869684.000000,63641601.000000
51094604.000000,63507222.000000
51313492.000000,63359584.000000
51526174.000000,63198312.000000
51732471.000000,63023027.000000
51932206.000000,62833353.000000
52125197.000000,62628914.000000
52244843.000000,62490147.000000
52357577.000000,62348812.000000
52463072.000000,62204816.000000
52560999.000000,62058059.000000
52651027.000000,61908448.000000
52732827.000000,61755886.000000
52806069.000000,61600278.000000
52870426.000000,61441528.000000
52925566.000000,61279541.000000
52971163.000000,61114218.000000
53006884.000000,60945467.000000
53032401.000000,60773189.000000
53041230.000000,60685699.000000
53047385.000000,60597291.000000
53050825.000000,60507954.000000
53051507.000000,60417675.000000
53049392.000000,60326443.000000
53044437.000000,60234246.000000
53036602.000000,60141072.000000
53025846.000000,60046908.000000
52990062.000000,59825489.000000
52941422.000000,59613747.000000
52880262.000000,59411472.000000
52806916.000000,59218447.000000
52721723.000000,59034458.000000
52625016.000000,58859294.000000
52517134.000000,58692740.000000
52398411.000000,58534581.000000
52269184.000000,58384603.000000
52129791.000000,58242595.000000
51980564.000000,58108339.000000
51821841.000000,57981622.000000
51653961.000000,57862233.000000
51477255.000000,57749955.000000
51292063.000000,57644575.000000
51098719.000000,57545880.000000
50725564.000000,57384036.000000
50341550.000000,57253252.000000
49948850.000000,57153170.000000
49549646.000000,57083433.000000
49146113.000000,57043687.000000
48740431.000000,57033574.000000
48334776.000000,57052736.000000
47931327.000000,57100819.000000
47532263.000000,57177465.000000
47139759.000000,57282319.000000
46755993.000000,57415021.000000
46383145.000000,57575219.000000
46023393.000000,57762554.000000
45678912.000000,57976668.000000
45351882.000000,58217208.000000
45044481.000000,58483814.000000
44898460.000000,58627548.000000
44762322.000000,58774263.000000
44636007.000000,58923709.000000
44519463.000000,59075636.000000
44412631.000000,59229792.000000
44315455.000000,59385927.000000
44227880.000000,59543791.000000
44149850.000000,59703135.000000
44081310.000000,59863707.000000
44022203.000000,60025257.000000
43972473.000000,60187535.000000
43932064.000000,60350289.000000
43900920.000000,60513270.000000
43878985.000000,60676228.000000
43866204.000000,60838912.000000
43862520.000000,61001072.000000
43101651.000000,61001072.000000
43099640.000000,60909984.000000
43111777.000000,60666417.000000
43141160.000000,60425179.000000
43187469.000000,60186318.000000
43250379.000000,59949881.000000
43329575.000000,59715915.000000
43424733.000000,59484468.000000
43535533.000000,59255588.000000
43661653.000000,59029320.000000
43802775.000000,58805715.000000
43958578.000000,58584819.000000
44105346.000000,58395589.000000
44258164.000000,58214902.000000
44416962.000000,58042704.000000
44581669.000000,57878937.000000
44752216.000000,57723550.000000
44928534.000000,57576486.000000
45110551.000000,57437692.000000
45298198.000000,57307113.000000
45491406.000000,57184694.000000
45690104.000000,57070381.000000
45894222.000000,56964118.000000
46103690.000000,56865854.000000
46318439.000000,56775531.000000
46538397.000000,56693095.000000
46763497.000000,56618491.000000
46993667.000000,56551667.000000
47025448.000000,56542715.000000
47057361.000000,56533121.000000
47122852.000000,56512249.000000
47192702.000000,56489537.000000
47269470.000000,56465472.000000
47544322.000000,56409538.000000
47817701.000000,56362988.000000
48089605.000000,56326176.000000
48360025.000000,56299449.000000
48628954.000000,56283159.000000
48896388.000000,56277658.000000
49162319.000000,56283295.000000
49426740.000000,56300422.000000
49689647.000000,56329390.000000
49951030.000000,56370549.000000
50210887.000000,56424249.000000
50469209.000000,56490842.000000
50725990.000000,56570677.000000
50981223.000000,56664108.000000
51234904.000000,56771484.000000
51487024.000000,56893155.000000
51698266.000000,57007065.000000
51901332.000000,57128064.000000
52095933.000000,57256293.000000
52281777.000000,57391891.000000
52458577.000000,57535002.000000
52626042.000000,57685768.000000
52783881.000000,57844328.000000
52931806.000000,58010826.000000
53069527.000000,58185402.000000
53196755.000000,58368197.000000
53313196.000000,58559355.000000
53418565.000000,58759014.000000
53512570.000000,58967318.000000
53594920.000000,59184407.000000
53665329.000000,59410424.000000
53723504.000000,59645510.000000
53765003.000000,59867487.000000
53792857.000000,60086784.000000
53807349.000000,60303383.000000
53808760.000000,60517265.000000
53797372.000000,60728419.000000
53773469.000000,60936821.000000
53737332.000000,61142459.000000
53689244.000000,61345316.000000
53629485.000000,61545373.000000
53558341.000000,61742616.000000
53476090.000000,61937026.000000
53383018.000000,62128587.000000
53279405.000000,62317284.000000
53165534.000000,62503098.000000
53041687.000000,62686012.000000
52908147.000000,62866013.000000
52759734.000000,63049636.000000
52605665.000000,63224747.000000
52446010.000000,63391452.000000
52280839.000000,63549864.000000
52110224.000000,63700092.000000
51934236.000000,63842245.000000
51752945.000000,63976432.000000
51566420.000000,64102766.000000
51374735.000000,64221355.000000
51177959.000000,64332309.000000
50976161.000000,64435741.000000
50769415.000000,64531756.000000
50557790.000000,64620467.000000
50341358.000000,64701984.000000
50120187.000000,64776415.000000
49894351.000000,64843871.000000
49643941.000000,64909844.000000
49393872.000000,64967017.000000
49144148.000000,65015174.000000
48894777.000000,65054093.000000
48645763.000000,65083557.000000
48397111.000000,65103350.000000
48148829.000000,65113251.000000
47900920.000000,65113043.000000
47653394.000000,65102507.000000
47406253.000000,65081424.000000
47159502.000000,65049577.000000
46913150.000000,65006747.000000
46667201.000000,64952715.000000
46421661.000000,64887264.000000
46176536.000000,64810174.000000
45931832.000000,64721228.000000
45721560.000000,64635257.000000
45516891.000000,64542604.000000
45318124.000000,64443047.000000
45125555.000000,64336357.000000
44939485.000000,64222310.000000
44760211.000000,64100679.000000
44588031.000000,63971240.000000
44423246.000000,63833766.000000
44266152.000000,63688031.000000
44117048.000000,63533810.000000
43976232.000000,63370876.000000
43844003.000000,63199005.000000
43720660.000000,63017970.000000
43606500.000000,62827545.000000
43501823.000000,62627505.000000
43406927.000000,62417624.000000
43308857.000000,62161083.000000
43229958.000000,61906585.000000
43169906.000000,61654179.000000
43163043.000000,61612814.000000
43128383.000000,61403912.000000
Z" /> 
</g>
<g style="fill:#000000; fill-opacity:1.0; 
stroke:#000000; stroke-width:1.000000; stroke-opacity:1; 
stroke-linecap:round; stroke-linejoin:round;">
<circle cx="32607944.000000" cy="62386784.000000" r="4159913.000000" /> 
<circle cx="31192857.000000" cy="62646784.000000" r="4159913.000000" /> 
<circle cx="32492857.000000" cy="16446784.000000" r="5502064.000000" /> 
</g>
<g style="fill:#000000; fill-opacity:1.0; 
stroke:#000000; stroke-width:2000.000000; stroke-opacity:1; 
stroke-linecap:round; stroke-linejoin:round;">
<path style="fill:#000000; fill-opacity:1.0; 
stroke:#000000; stroke-width:2000.000000; stroke-opacity:1; 
stroke-linecap:round; stroke-linejoin:round;fill-rule:evenodd;"
d="M 26518817.000000,62974637.000000
26515399.000000,62819879.000000
27276268.000000,62819879.000000
27281626.000000,62981263.000000
27295969.000000,63141622.000000
27319242.000000,63300707.000000
27351387.000000,63458266.000000
27392350.000000,63614047.000000
27442075.000000,63767802.000000
27500506.000000,63919281.000000
27567586.000000,64068232.000000
27643261.000000,64214405.000000
27727472.000000,64357550.000000
27820166.000000,64497416.000000
27921285.000000,64633754.000000
28030773.000000,64766312.000000
28148576.000000,64894841.000000
28274637.000000,65019089.000000
28408900.000000,65138806.000000
28594818.000000,65275707.000000
28783689.000000,65402921.000000
28975518.000000,65520435.000000
29170315.000000,65628232.000000
29368086.000000,65726296.000000
29568836.000000,65814611.000000
29772574.000000,65893160.000000
29979307.000000,65961927.000000
30189042.000000,66020897.000000
30401786.000000,66070054.000000
30617544.000000,66109382.000000
30836328.000000,66138863.000000
31058140.000000,66158483.000000
31282990.000000,66168225.000000
31510883.000000,66168073.000000
31741828.000000,66158011.000000
32017241.000000,66135465.000000
32288408.000000,66103432.000000
32555148.000000,66061536.000000
32817283.000000,66009399.000000
33074637.000000,65946645.000000
33327030.000000,65872896.000000
33574283.000000,65787774.000000
33816220.000000,65690905.000000
34052662.000000,65581909.000000
34283432.000000,65460408.000000
34508352.000000,65326029.000000
34727240.000000,65178391.000000
34939922.000000,65017119.000000
35146219.000000,64841834.000000
35345954.000000,64652160.000000
35538945.000000,64447721.000000
35658591.000000,64308954.000000
35771325.000000,64167619.000000
35876820.000000,64023623.000000
35974747.000000,63876866.000000
36064775.000000,63727255.000000
36146575.000000,63574693.000000
36219817.000000,63419085.000000
36284174.000000,63260335.000000
36339314.000000,63098348.000000
36384911.000000,62933025.000000
36420632.000000,62764274.000000
36446149.000000,62591996.000000
36454978.000000,62504506.000000
36461133.000000,62416098.000000
36464573.000000,62326761.000000
36465255.000000,62236482.000000
36463140.000000,62145250.000000
36458185.000000,62053053.000000
36450350.000000,61959879.000000
36439594.000000,61865715.000000
36403810.000000,61644296.000000
36355170.000000,61432554.000000
36294010.000000,61230279.000000
36220664.000000,61037254.000000
36135471.000000,60853265.000000
36038764.000000,60678101.000000
35930882.000000,60511547.000000
35812159.000000,60353388.000000
35682932.000000,60203410.000000
35543539.000000,60061402.000000
35394312.000000,59927146.000000
35235589.000000,59800429.000000
35067709.000000,59681040.000000
34891003.000000,59568762.000000
34705811.000000,59463382.000000
34512467.000000,59364687.000000
34139312.000000,59202843.000000
33755298.000000,59072059.000000
33362598.000000,58971977.000000
32963394.000000,58902240.000000
32559861.000000,58862494.000000
32154179.000000,58852381.000000
31748524.000000,58871543.000000
31345075.000000,58919626.000000
30946011.000000,58996272.000000
30553507.000000,59101126.000000
30169741.000000,59233828.000000
29796893.000000,59394026.000000
29437141.000000,59581361.000000
29092660.000000,59795475.000000
28765630.000000,60036015.000000
28458229.000000,60302621.000000
28312208.000000,60446355.000000
28176070.000000,60593070.000000
28049755.000000,60742516.000000
27933211.000000,60894443.000000
27826379.000000,61048599.000000
27729203.000000,61204734.000000
27641628.000000,61362598.000000
27563598.000000,61521942.000000
27495058.000000,61682514.000000
27435951.000000,61844064.000000
27386221.000000,62006342.000000
27345812.000000,62169096.000000
27314668.000000,62332077.000000
27292733.000000,62495035.000000
27279952.000000,62657719.000000
27276268.000000,62819879.000000
26515399.000000,62819879.000000
26513388.000000,62728791.000000
26525525.000000,62485224.000000
26554908.000000,62243986.000000
26601217.000000,62005125.000000
26664127.000000,61768688.000000
26743323.000000,61534722.000000
26838481.000000,61303275.000000
26949281.000000,61074395.000000
27075401.000000,60848127.000000
27216523.000000,60624522.000000
27372326.000000,60403626.000000
27519094.000000,60214396.000000
27671912.000000,60033709.000000
27830710.000000,59861511.000000
27995417.000000,59697744.000000
28165964.000000,59542357.000000
28342282.000000,59395293.000000
28524299.000000,59256499.000000
28711946.000000,59125920.000000
28905154.000000,59003501.000000
29103852.000000,58889188.000000
29307970.000000,58782925.000000
29517438.000000,58684661.000000
29732187.000000,58594338.000000
29952145.000000,58511902.000000
30177245.000000,58437298.000000
30407415.000000,58370474.000000
30439196.000000,58361522.000000
30471109.000000,58351928.000000
30536600.000000,58331056.000000
30606450.000000,58308344.000000
30683218.000000,58284279.000000
30958070.000000,58228345.000000
31231449.000000,58181795.000000
31503353.000000,58144983.000000
31773773.000000,58118256.000000
32042702.000000,58101966.000000
32310136.000000,58096465.000000
32576067.000000,58102102.000000
32840488.000000,58119229.000000
33103395.000000,58148197.000000
33364778.000000,58189356.000000
33624635.000000,58243056.000000
33882957.000000,58309649.000000
34139738.000000,58389484.000000
34394971.000000,58482915.000000
34648652.000000,58590291.000000
34900772.000000,58711962.000000
35112014.000000,58825872.000000
35315080.000000,58946871.000000
35509681.000000,59075100.000000
35695525.000000,59210698.000000
35872325.000000,59353809.000000
36039790.000000,59504575.000000
36197629.000000,59663135.000000
36345554.000000,59829633.000000
36483275.000000,60004209.000000
36610503.000000,60187004.000000
36726944.000000,60378162.000000
36832313.000000,60577821.000000
36926318.000000,60786125.000000
37008668.000000,61003214.000000
37079077.000000,61229231.000000
37137252.000000,61464317.000000
37178751.000000,61686294.000000
37206605.000000,61905591.000000
37221097.000000,62122190.000000
37222508.000000,62336072.000000
37211120.000000,62547226.000000
37187217.000000,62755628.000000
37151080.000000,62961266.000000
37102992.000000,63164123.000000
37043233.000000,63364180.000000
36972089.000000,63561423.000000
36889838.000000,63755833.000000
36796766.000000,63947394.000000
36693153.000000,64136091.000000
36579282.000000,64321905.000000
36455435.000000,64504819.000000
36321895.000000,64684820.000000
36173482.000000,64868443.000000
36019413.000000,65043554.000000
35859758.000000,65210259.000000
35694587.000000,65368671.000000
35523972.000000,65518899.000000
35347984.000000,65661052.000000
35166693.000000,65795239.000000
34980168.000000,65921573.000000
34788483.000000,66040162.000000
34591707.000000,66151116.000000
34389909.000000,66254548.000000
34183163.000000,66350563.000000
33971538.000000,66439274.000000
33755106.000000,66520791.000000
33533935.000000,66595222.000000
33308099.000000,66662678.000000
33057689.000000,66728651.000000
32807620.000000,66785824.000000
32557896.000000,66833981.000000
32308525.000000,66872900.000000
32059511.000000,66902364.000000
31810859.000000,66922157.000000
31562577.000000,66932058.000000
31314668.000000,66931850.000000
31067142.000000,66921314.000000
30820001.000000,66900231.000000
30573250.000000,66868384.000000
30326898.000000,66825554.000000
30080949.000000,66771522.000000
29835409.000000,66706071.000000
29590284.000000,66628981.000000
29345580.000000,66540035.000000
29135308.000000,66454064.000000
28930639.000000,66361411.000000
28731872.000000,66261854.000000
28539303.000000,66155164.000000
28353233.000000,66041117.000000
28173959.000000,65919486.000000
28001779.000000,65790047.000000
27836994.000000,65652573.000000
27679900.000000,65506838.000000
27530796.000000,65352617.000000
27389980.000000,65189683.000000
27257751.000000,65017812.000000
27134408.000000,64836777.000000
27020248.000000,64646352.000000
26915571.000000,64446312.000000
26820675.000000,64236431.000000
26722605.000000,63979890.000000
26643706.000000,63725392.000000
26583654.000000,63472986.000000
26576791.000000,63431621.000000
26542131.000000,63222719.000000
Z" /> 
</g>
<g style="fill:#000000; fill-opacity:1.0; 
stroke:#000000; stroke-width:1.000000; stroke-opacity:1; 
stroke-linecap:round; stroke-linejoin:round;">
<circle cx="33222857.000000" cy="43214720.000000" r="5502064.000000" /> 
<g >
<path style="fill:#000000; fill-opacity:1.0; 
stroke:#000000; stroke-width:1.000000; stroke-opacity:1; 
stroke-linecap:round; stroke-linejoin:round;fill-rule:evenodd;"
d="M 11952857.000000,58466784.000000
11952857.000000,60166784.000000
10252857.000000,60166784.000000
10252857.000000,58466784.000000
Z" /> 
<circle cx="11102857.000000" cy="56776784.000000" r="850000.000000" /> 
<circle cx="11102857.000000" cy="54236784.000000" r="850000.000000" /> 
<circle cx="11102857.000000" cy="51696784.000000" r="850000.000000" /> 
<circle cx="11102857.000000" cy="49156784.000000" r="850000.000000" /> 
<circle cx="11102857.000000" cy="46616784.000000" r="850000.000000" /> 
<circle cx="11102857.000000" cy="44076784.000000" r="850000.000000" /> 
<circle cx="11102857.000000" cy="41536784.000000" r="850000.000000" /> 
<circle cx="11102857.000000" cy="38996784.000000" r="850000.000000" /> 
<circle cx="11102857.000000" cy="36456784.000000" r="850000.000000" /> 
<circle cx="11102857.000000" cy="33916784.000000" r="850000.000000" /> 
<circle cx="11102857.000000" cy="31376784.000000" r="850000.000000" /> 
<circle cx="11102857.000000" cy="28836784.000000" r="850000.000000" /> 
<circle cx="11102857.000000" cy="26296784.000000" r="850000.000000" /> 
<circle cx="11102857.000000" cy="23756784.000000" r="850000.000000" /> 
<circle cx="11102857.000000" cy="21216784.000000" r="850000.000000" /> 
<circle cx="11102857.000000" cy="18676784.000000" r="850000.000000" /> 
<circle cx="11102857.000000" cy="16136784.000000" r="850000.000000" /> 
<circle cx="11102857.000000" cy="13596784.000000" r="850000.000000" /> 
</g>
<g >
</g>
<g >
</g>
<g >
</g>
</g>
<g style="fill:#FFFFFF; fill-opacity:1.0; 
stroke:#FFFFFF; stroke-width:1.000000; stroke-opacity:1; 
stroke-linecap:round; stroke-linejoin:round;">
<circle cx="11102857.000000" cy="59316784.000000" r="500000.000000" /> 
</g>
<g style="fill:#FFFFFF; fill-opacity:1.0; 
stroke:#FFFFFF; stroke-width:21200.000000; stroke-opacity:1; 
stroke-linecap:round; stroke-linejoin:round;">
</g>
<g style="fill:#FFFFFF; fill-opacity:1.0; 
stroke:#FFFFFF; stroke-width:1.000000; stroke-opacity:1; 
stroke-linecap:round; stroke-linejoin:round;">
<circle cx="11102857.000000" cy="56776784.000000" r="500000.000000" /> 
</g>
<g style="fill:#FFFFFF; fill-opacity:1.0; 
stroke:#FFFFFF; stroke-width:21200.000000; stroke-opacity:1; 
stroke-linecap:round; stroke-linejoin:round;">
</g>
<g style="fill:#FFFFFF; fill-opacity:1.0; 
stroke:#FFFFFF; stroke-width:1.000000; stroke-opacity:1; 
stroke-linecap:round; stroke-linejoin:round;">
<circle cx="11102857.000000" cy="54236784.000000" r="500000.000000" /> 
</g>
<g style="fill:#FFFFFF; fill-opacity:1.0; 
stroke:#FFFFFF; stroke-width:21200.000000; stroke-opacity:1; 
stroke-linecap:round; stroke-linejoin:round;">
</g>
<g style="fill:#FFFFFF; fill-opacity:1.0; 
stroke:#FFFFFF; stroke-width:1.000000; stroke-opacity:1; 
stroke-linecap:round; stroke-linejoin:round;">
<circle cx="11102857.000000" cy="51696784.000000" r="500000.000000" /> 
</g>
<g style="fill:#FFFFFF; fill-opacity:1.0; 
stroke:#FFFFFF; stroke-width:21200.000000; stroke-opacity:1; 
stroke-linecap:round; stroke-linejoin:round;">
</g>
<g style="fill:#FFFFFF; fill-opacity:1.0; 
stroke:#FFFFFF; stroke-width:1.000000; stroke-opacity:1; 
stroke-linecap:round; stroke-linejoin:round;">
<circle cx="11102857.000000" cy="49156784.000000" r="500000.000000" /> 
</g>
<g style="fill:#FFFFFF; fill-opacity:1.0; 
stroke:#FFFFFF; stroke-width:21200.000000; stroke-opacity:1; 
stroke-linecap:round; stroke-linejoin:round;">
</g>
<g style="fill:#FFFFFF; fill-opacity:1.0; 
stroke:#FFFFFF; stroke-width:1.000000; stroke-opacity:1; 
stroke-linecap:round; stroke-linejoin:round;">
<circle cx="11102857.000000" cy="46616784.000000" r="500000.000000" /> 
</g>
<g style="fill:#FFFFFF; fill-opacity:1.0; 
stroke:#FFFFFF; stroke-width:21200.000000; stroke-opacity:1; 
stroke-linecap:round; stroke-linejoin:round;">
</g>
<g style="fill:#FFFFFF; fill-opacity:1.0; 
stroke:#FFFFFF; stroke-width:1.000000; stroke-opacity:1; 
stroke-linecap:round; stroke-linejoin:round;">
<circle cx="11102857.000000" cy="44076784.000000" r="500000.000000" /> 
</g>
<g style="fill:#FFFFFF; fill-opacity:1.0; 
stroke:#FFFFFF; stroke-width:21200.000000; stroke-opacity:1; 
stroke-linecap:round; stroke-linejoin:round;">
</g>
<g style="fill:#FFFFFF; fill-opacity:1.0; 
stroke:#FFFFFF; stroke-width:1.000000; stroke-opacity:1; 
stroke-linecap:round; stroke-linejoin:round;">
<circle cx="11102857.000000" cy="41536784.000000" r="500000.000000" /> 
</g>
<g style="fill:#FFFFFF; fill-opacity:1.0; 
stroke:#FFFFFF; stroke-width:21200.000000; stroke-opacity:1; 
stroke-linecap:round; stroke-linejoin:round;">
</g>
<g style="fill:#FFFFFF; fill-opacity:1.0; 
stroke:#FFFFFF; stroke-width:1.000000; stroke-opacity:1; 
stroke-linecap:round; stroke-linejoin:round;">
<circle cx="11102857.000000" cy="38996784.000000" r="500000.000000" /> 
</g>
<g style="fill:#FFFFFF; fill-opacity:1.0; 
stroke:#FFFFFF; stroke-width:21200.000000; stroke-opacity:1; 
stroke-linecap:round; stroke-linejoin:round;">
</g>
<g style="fill:#FFFFFF; fill-opacity:1.0; 
stroke:#FFFFFF; stroke-width:1.000000; stroke-opacity:1; 
stroke-linecap:round; stroke-linejoin:round;">
<circle cx="11102857.000000" cy="36456784.000000" r="500000.000000" /> 
</g>
<g style="fill:#FFFFFF; fill-opacity:1.0; 
stroke:#FFFFFF; stroke-width:21200.000000; stroke-opacity:1; 
stroke-linecap:round; stroke-linejoin:round;">
</g>
<g style="fill:#FFFFFF; fill-opacity:1.0; 
stroke:#FFFFFF; stroke-width:1.000000; stroke-opacity:1; 
stroke-linecap:round; stroke-linejoin:round;">
<circle cx="11102857.000000" cy="33916784.000000" r="500000.000000" /> 
</g>
<g style="fill:#FFFFFF; fill-opacity:1.0; 
stroke:#FFFFFF; stroke-width:21200.000000; stroke-opacity:1; 
stroke-linecap:round; stroke-linejoin:round;">
</g>
<g style="fill:#FFFFFF; fill-opacity:1.0; 
stroke:#FFFFFF; stroke-width:1.000000; stroke-opacity:1; 
stroke-linecap:round; stroke-linejoin:round;">
<circle cx="11102857.000000" cy="31376784.000000" r="500000.000000" /> 
</g>
<g style="fill:#FFFFFF; fill-opacity:1.0; 
stroke:#FFFFFF; stroke-width:21200.000000; stroke-opacity:1; 
stroke-linecap:round; stroke-linejoin:round;">
</g>
<g style="fill:#FFFFFF; fill-opacity:1.0; 
stroke:#FFFFFF; stroke-width:1.000000; stroke-opacity:1; 
stroke-linecap:round; stroke-linejoin:round;">
<circle cx="11102857.000000" cy="28836784.000000" r="500000.000000" /> 
</g>
<g style="fill:#FFFFFF; fill-opacity:1.0; 
stroke:#FFFFFF; stroke-width:21200.000000; stroke-opacity:1; 
stroke-linecap:round; stroke-linejoin:round;">
</g>
<g style="fill:#FFFFFF; fill-opacity:1.0; 
stroke:#FFFFFF; stroke-width:1.000000; stroke-opacity:1; 
stroke-linecap:round; stroke-linejoin:round;">
<circle cx="11102857.000000" cy="26296784.000000" r="500000.000000" /> 
</g>
<g style="fill:#FFFFFF; fill-opacity:1.0; 
stroke:#FFFFFF; stroke-width:21200.000000; stroke-opacity:1; 
stroke-linecap:round; stroke-linejoin:round;">
</g>
<g style="fill:#FFFFFF; fill-opacity:1.0; 
stroke:#FFFFFF; stroke-width:1.000000; stroke-opacity:1; 
stroke-linecap:round; stroke-linejoin:round;">
<circle cx="11102857.000000" cy="23756784.000000" r="500000.000000" /> 
</g>
<g style="fill:#FFFFFF; fill-opacity:1.0; 
stroke:#FFFFFF; stroke-width:21200.000000; stroke-opacity:1; 
stroke-linecap:round; stroke-linejoin:round;">
</g>
<g style="fill:#FFFFFF; fill-opacity:1.0; 
stroke:#FFFFFF; stroke-width:1.000000; stroke-opacity:1; 
stroke-linecap:round; stroke-linejoin:round;">
<circle cx="11102857.000000" cy="21216784.000000" r="500000.000000" /> 
</g>
<g style="fill:#FFFFFF; fill-opacity:1.0; 
stroke:#FFFFFF; stroke-width:21200.000000; stroke-opacity:1; 
stroke-linecap:round; stroke-linejoin:round;">
</g>
<g style="fill:#FFFFFF; fill-opacity:1.0; 
stroke:#FFFFFF; stroke-width:1.000000; stroke-opacity:1; 
stroke-linecap:round; stroke-linejoin:round;">
<circle cx="11102857.000000" cy="18676784.000000" r="500000.000000" /> 
</g>
<g style="fill:#FFFFFF; fill-opacity:1.0; 
stroke:#FFFFFF; stroke-width:21200.000000; stroke-opacity:1; 
stroke-linecap:round; stroke-linejoin:round;">
</g>
<g style="fill:#FFFFFF; fill-opacity:1.0; 
stroke:#FFFFFF; stroke-width:1.000000; stroke-opacity:1; 
stroke-linecap:round; stroke-linejoin:round;">
<circle cx="11102857.000000" cy="16136784.000000" r="500000.000000" /> 
</g>
<g style="fill:#FFFFFF; fill-opacity:1.0; 
stroke:#FFFFFF; stroke-width:21200.000000; stroke-opacity:1; 
stroke-linecap:round; stroke-linejoin:round;">
</g>
<g style="fill:#FFFFFF; fill-opacity:1.0; 
stroke:#FFFFFF; stroke-width:1.000000; stroke-opacity:1; 
stroke-linecap:round; stroke-linejoin:round;">
<circle cx="11102857.000000" cy="13596784.000000" r="500000.000000" /> 
</g>
<g style="fill:#FFFFFF; fill-opacity:1.0; 
stroke:#FFFFFF; stroke-width:21200.000000; stroke-opacity:1; 
stroke-linecap:round; stroke-linejoin:round;">
</g>
<g style="fill:#000000; fill-opacity:1.0; 
stroke:#000000; stroke-width:21200.000000; stroke-opacity:1; 
stroke-linecap:round; stroke-linejoin:round;">
</g>
<g style="fill:#000000; fill-opacity:1.0; 
stroke:#000000; stroke-width:100000.000000; stroke-opacity:1; 
stroke-linecap:round; stroke-linejoin:round;">
</g>
<g style="fill:#000000; fill-opacity:0.0; 
stroke:#000000; stroke-width:100000.000000; stroke-opacity:1; 
stroke-linecap:round; stroke-linejoin:round;">
<path d="M6712857 156784
L93712857 156784
" />
<path d="M93712857 156784
L93712857 72156784
" />
<path d="M93712857 72156784
L6712857 72156784
" />
<path d="M6712857 72156784
L6712857 156784
" />
<g >
</g>
<g >
</g>
<g >
</g>
<g >
</g>
</g> 
</svg>
