M48
; DRILL file {KiCad (6.0.6)} date Thu Aug 17 02:32:16 2023
; FORMAT={-:-/ absolute / metric / decimal}
; #@! TF.CreationDate,2023-08-17T02:32:16+09:00
; #@! TF.GenerationSoftware,Kicad,Pcbnew,(6.0.6)
; #@! TF.FileFunction,Plated,1,4,PTH
FMAT,2
METRIC
; #@! TA.AperFunction,Plated,PTH,ViaDrill
T1C0.400
; #@! TA.AperFunction,Plated,PTH,ComponentDrill
T2C1.000
%
G90
G05
T1
X115.85Y-118.58
X115.86Y-121.12
X115.86Y-123.66
X116.05Y-57.98
X116.05Y-60.52
X116.05Y-63.06
X116.05Y-65.6
X116.05Y-68.14
X118.39Y-118.58
X118.4Y-121.12
X118.4Y-123.66
X118.59Y-57.98
X118.59Y-60.52
X118.59Y-63.06
X118.59Y-65.6
X118.59Y-68.14
X120.93Y-118.58
X120.94Y-121.12
X120.94Y-123.66
X121.13Y-57.98
X121.13Y-60.52
X121.13Y-63.06
X121.13Y-65.6
X121.13Y-68.14
X123.48Y-121.12
X123.48Y-123.66
X123.67Y-57.98
X123.67Y-60.52
X123.67Y-63.06
X123.67Y-65.6
X123.67Y-68.14
X126.21Y-57.98
X126.21Y-60.52
X126.21Y-63.06
X128.04Y-71.83
X128.75Y-57.98
X128.75Y-60.52
X128.75Y-63.06
X128.89Y-115.6
X129.42Y-97.35
X131.29Y-57.98
X131.29Y-60.52
X131.29Y-63.06
X133.83Y-57.98
X133.83Y-60.52
X133.83Y-63.06
X136.37Y-57.98
X136.37Y-60.52
X136.37Y-63.06
X138.72Y-123.66
X138.91Y-57.98
X138.91Y-60.52
X138.91Y-63.06
X141.26Y-123.66
X141.45Y-57.98
X141.45Y-60.52
X141.45Y-63.06
X141.45Y-65.6
X143.8Y-123.66
X143.99Y-57.98
X143.99Y-60.52
X143.99Y-63.06
X143.99Y-65.6
X145.67Y-113.64
X146.34Y-123.66
X146.53Y-57.98
X146.53Y-60.52
X146.53Y-63.06
X146.53Y-65.6
X147.31Y-85.86
X148.88Y-123.66
X149.07Y-57.98
X149.07Y-60.52
X149.07Y-63.06
X149.49Y-91.83
X149.79Y-80.44
X151.42Y-123.66
X151.61Y-57.98
X151.61Y-60.52
X153.87Y-76.46
X153.96Y-123.66
X153.98Y-82.04
X154.05Y-90.5
X154.15Y-57.98
X154.15Y-60.52
X156.43Y-90.53
X156.49Y-82.04
X156.5Y-123.66
X156.69Y-57.98
X156.69Y-60.52
X157.99Y-72.24
X158.27Y-100.13
X159.04Y-123.66
X159.23Y-57.98
X159.23Y-60.52
X160.74Y-69.42
X161.58Y-123.66
X161.77Y-57.98
X161.77Y-60.52
X162.115Y-112.545
X162.44Y-73.64
X162.45Y-98.91
X162.48Y-82.08
X162.49Y-90.51
X164.12Y-123.66
X164.31Y-57.98
X164.31Y-60.52
X164.83Y-98.91
X164.84Y-90.47
X164.89Y-73.63
X164.89Y-82.06
X165.55Y-106.66
X165.56Y-65.76
X166.66Y-123.66
X166.85Y-57.98
X166.85Y-60.52
X169.19Y-123.65
X169.39Y-57.98
X169.39Y-60.52
X170.84Y-98.91
X170.85Y-73.6
X170.86Y-82.06
X170.92Y-90.48
X171.73Y-123.65
X171.93Y-57.98
X171.93Y-60.52
X173.27Y-82.06
X173.27Y-90.49
X173.29Y-98.9
X173.31Y-73.62
X173.44Y-104.55
X174.27Y-118.57
X174.27Y-121.11
X174.27Y-123.65
X174.47Y-57.98
X174.47Y-60.52
X176.81Y-116.03
X176.81Y-118.57
X176.81Y-123.65
X176.82Y-121.12
X177.01Y-57.98
X177.01Y-60.52
X177.01Y-63.06
X179.3Y-90.51
X179.32Y-82.09
X179.35Y-113.49
X179.35Y-116.03
X179.35Y-118.57
X179.35Y-121.11
X179.35Y-123.65
X179.55Y-57.98
X179.55Y-60.52
X179.55Y-63.06
X179.55Y-65.6
X181.71Y-82.06
X181.72Y-90.49
X181.89Y-110.95
X181.89Y-113.49
X181.89Y-116.03
X181.89Y-118.57
X181.89Y-121.11
X181.89Y-123.65
X182.04Y-95.93
X182.09Y-57.98
X182.09Y-60.52
X182.09Y-63.06
X182.09Y-65.6
X182.09Y-68.14
X184.43Y-105.87
X184.43Y-108.41
X184.43Y-110.95
X184.43Y-113.49
X184.43Y-116.03
X184.43Y-118.57
X184.44Y-121.12
X184.44Y-123.66
X184.63Y-57.98
X184.63Y-60.52
X184.63Y-63.06
X184.63Y-65.6
X184.63Y-68.14
X184.63Y-70.68
X186.97Y-105.87
X186.97Y-108.41
X186.97Y-110.95
X186.97Y-113.49
X186.97Y-116.03
X186.97Y-118.57
X187.17Y-65.6
X187.17Y-68.14
X187.17Y-70.68
X187.17Y-73.22
X188.37Y-88.19
X189.51Y-105.87
X189.51Y-108.41
X189.51Y-110.95
X189.51Y-113.49
X189.51Y-116.03
X189.51Y-118.57
X189.71Y-65.6
X189.71Y-68.14
X189.71Y-70.68
X189.71Y-73.22
X189.71Y-75.76
T2
X111.52Y-69.29
X111.52Y-71.83
X111.52Y-74.37
X111.52Y-76.91
X111.52Y-79.45
X111.52Y-81.99
X111.52Y-84.53
X111.52Y-87.07
X111.52Y-89.61
X111.52Y-92.15
X111.52Y-94.69
X111.52Y-97.23
X111.52Y-99.77
X111.52Y-102.31
X111.52Y-104.85
X111.52Y-107.39
X111.52Y-109.93
X111.52Y-112.47
X111.52Y-115.01
T0
M30
