%TF.GenerationSoftware,KiCad,Pcbnew,(6.0.6)*%
%TF.CreationDate,2023-08-16T17:32:26+09:00*%
%TF.ProjectId,TestBoard,54657374-426f-4617-9264-2e6b69636164,rev?*%
%TF.SameCoordinates,PX6c56600PY7f867c0*%
%TF.FileFunction,Paste,Top*%
%TF.FilePolarity,Positive*%
%FSLAX46Y46*%
G04 Gerber Fmt 4.6, Leading zero omitted, Abs format (unit mm)*
G04 Created by KiCad (PCBNEW (6.0.6)) date 2023-08-16 17:32:26*
%MOMM*%
%LPD*%
G01*
G04 APERTURE LIST*
%ADD10C,0.010000*%
%ADD11R,0.650000X0.700000*%
%ADD12R,0.600000X0.620000*%
%ADD13R,0.620000X0.600000*%
%ADD14R,0.750000X0.940000*%
%ADD15R,0.940000X0.750000*%
%ADD16R,0.900000X1.450000*%
%ADD17R,1.150000X1.150000*%
%ADD18R,1.200000X0.850000*%
%ADD19R,4.700000X4.700000*%
%ADD20R,0.850000X0.300000*%
%ADD21R,0.300000X0.850000*%
%ADD22R,0.800000X1.000000*%
%ADD23R,1.000000X0.800000*%
%ADD24R,1.000000X1.400000*%
%ADD25R,2.000000X2.000000*%
%ADD26R,1.100000X0.500000*%
%ADD27R,0.500000X1.100000*%
%ADD28R,1.528000X0.650000*%
%ADD29R,0.500000X1.000000*%
%ADD30R,1.270000X3.680000*%
%ADD31R,1.500000X0.700000*%
%ADD32R,5.200000X1.000000*%
%ADD33R,3.000000X1.000000*%
%ADD34R,4.000000X1.800000*%
%ADD35R,1.850000X3.250000*%
%ADD36R,0.400000X1.900000*%
%ADD37R,1.550000X2.000000*%
%ADD38R,0.500000X0.650000*%
%ADD39R,1.250000X1.500000*%
%ADD40R,0.500000X0.475000*%
%ADD41R,1.450000X0.950000*%
%ADD42R,0.800000X0.800000*%
%ADD43R,1.100000X2.000000*%
%ADD44R,0.400000X0.500000*%
%ADD45R,0.700000X0.600000*%
%ADD46R,0.600000X0.700000*%
%ADD47R,1.400000X1.000000*%
%ADD48R,0.600000X1.250000*%
%ADD49R,0.600000X1.200000*%
G04 APERTURE END LIST*
%TO.C,IC1*%
G36*
X41295000Y10760000D02*
G01*
X41295000Y10620000D01*
X39335000Y10620000D01*
X39985000Y11270000D01*
X40785000Y11270000D01*
X41295000Y10760000D01*
G37*
D10*
X41295000Y10760000D02*
X41295000Y10620000D01*
X39335000Y10620000D01*
X39985000Y11270000D01*
X40785000Y11270000D01*
X41295000Y10760000D01*
G36*
X40785000Y9280000D02*
G01*
X39985000Y9280000D01*
X39475000Y9790000D01*
X39475000Y9930000D01*
X41435000Y9930000D01*
X40785000Y9280000D01*
G37*
X40785000Y9280000D02*
X39985000Y9280000D01*
X39475000Y9790000D01*
X39475000Y9930000D01*
X41435000Y9930000D01*
X40785000Y9280000D01*
%TO.C,IC2*%
G36*
X87565000Y11500000D02*
G01*
X86765000Y11500000D01*
X86255000Y12010000D01*
X86255000Y12150000D01*
X88215000Y12150000D01*
X87565000Y11500000D01*
G37*
X87565000Y11500000D02*
X86765000Y11500000D01*
X86255000Y12010000D01*
X86255000Y12150000D01*
X88215000Y12150000D01*
X87565000Y11500000D01*
G36*
X88075000Y12980000D02*
G01*
X88075000Y12840000D01*
X86115000Y12840000D01*
X86765000Y13490000D01*
X87565000Y13490000D01*
X88075000Y12980000D01*
G37*
X88075000Y12980000D02*
X88075000Y12840000D01*
X86115000Y12840000D01*
X86765000Y13490000D01*
X87565000Y13490000D01*
X88075000Y12980000D01*
%TO.C,IC3*%
G36*
X28735000Y7000000D02*
G01*
X28735000Y6860000D01*
X26775000Y6860000D01*
X27425000Y7510000D01*
X28225000Y7510000D01*
X28735000Y7000000D01*
G37*
X28735000Y7000000D02*
X28735000Y6860000D01*
X26775000Y6860000D01*
X27425000Y7510000D01*
X28225000Y7510000D01*
X28735000Y7000000D01*
G36*
X28225000Y5520000D02*
G01*
X27425000Y5520000D01*
X26915000Y6030000D01*
X26915000Y6170000D01*
X28875000Y6170000D01*
X28225000Y5520000D01*
G37*
X28225000Y5520000D02*
X27425000Y5520000D01*
X26915000Y6030000D01*
X26915000Y6170000D01*
X28875000Y6170000D01*
X28225000Y5520000D01*
%TD*%
D11*
%TO.C,FB1*%
X62530000Y18820000D03*
X61180000Y18820000D03*
%TD*%
D12*
%TO.C,C22*%
X56950000Y51450000D03*
X56030000Y51450000D03*
%TD*%
D13*
%TO.C,C4*%
X48550000Y1470000D03*
X48550000Y2390000D03*
%TD*%
%TO.C,C5*%
X64580000Y21770000D03*
X64580000Y20850000D03*
%TD*%
D12*
%TO.C,C6*%
X67170000Y23070000D03*
X66250000Y23070000D03*
%TD*%
D13*
%TO.C,C7*%
X48500000Y12490000D03*
X48500000Y13410000D03*
%TD*%
%TO.C,C8*%
X48520000Y6910000D03*
X48520000Y7830000D03*
%TD*%
%TO.C,C9*%
X75840000Y13410000D03*
X75840000Y14330000D03*
%TD*%
%TO.C,C10*%
X75860000Y7010000D03*
X75860000Y7930000D03*
%TD*%
%TO.C,C11*%
X46210000Y12500000D03*
X46210000Y13420000D03*
%TD*%
%TO.C,C12*%
X46130000Y6850000D03*
X46130000Y7770000D03*
%TD*%
%TO.C,C19*%
X77340000Y18470000D03*
X77340000Y17550000D03*
%TD*%
%TO.C,C14*%
X79750000Y6960000D03*
X79750000Y7880000D03*
%TD*%
D12*
%TO.C,C15*%
X52870000Y48400000D03*
X53790000Y48400000D03*
%TD*%
%TO.C,C16*%
X50590000Y48400000D03*
X51510000Y48400000D03*
%TD*%
%TO.C,C17*%
X87540000Y21410000D03*
X86620000Y21410000D03*
%TD*%
%TO.C,C20*%
X56950000Y49760000D03*
X56030000Y49760000D03*
%TD*%
D13*
%TO.C,C18*%
X34990000Y2470000D03*
X34990000Y3390000D03*
%TD*%
%TO.C,C3*%
X48610000Y3970000D03*
X48610000Y4890000D03*
%TD*%
D14*
%TO.C,C21*%
X35620000Y13700000D03*
X37020000Y13700000D03*
%TD*%
%TO.C,C26*%
X28995000Y15360000D03*
X30395000Y15360000D03*
%TD*%
D15*
%TO.C,C25*%
X91715000Y12520000D03*
X91715000Y11120000D03*
%TD*%
%TO.C,C24*%
X23570000Y9490000D03*
X23570000Y8090000D03*
%TD*%
%TO.C,C23*%
X35645000Y10440000D03*
X35645000Y11840000D03*
%TD*%
D16*
%TO.C,FL2*%
X50885000Y52350000D03*
X50885000Y56800000D03*
X53385000Y56800000D03*
X53385000Y52350000D03*
%TD*%
%TO.C,FL1*%
X44015000Y49660000D03*
X44015000Y54110000D03*
X46515000Y54110000D03*
X46515000Y49660000D03*
%TD*%
D17*
%TO.C,R2*%
X69000000Y17760000D03*
X66650000Y17760000D03*
%TD*%
%TO.C,R1*%
X43640000Y4550000D03*
X45990000Y4550000D03*
%TD*%
D18*
%TO.C,Z1*%
X62225000Y12730000D03*
X62225000Y15780000D03*
%TD*%
D19*
%TO.C,IC6*%
X34565000Y37625000D03*
D20*
X37515000Y39875000D03*
X37515000Y39375000D03*
X37515000Y38875000D03*
X37515000Y38375000D03*
X37515000Y37875000D03*
X37515000Y37375000D03*
X37515000Y36875000D03*
X37515000Y36375000D03*
X37515000Y35875000D03*
X37515000Y35375000D03*
D21*
X36815000Y34675000D03*
X36315000Y34675000D03*
X35815000Y34675000D03*
X35315000Y34675000D03*
X34815000Y34675000D03*
X34315000Y34675000D03*
X33815000Y34675000D03*
X33315000Y34675000D03*
X32815000Y34675000D03*
X32315000Y34675000D03*
D20*
X31615000Y35375000D03*
X31615000Y35875000D03*
X31615000Y36375000D03*
X31615000Y36875000D03*
X31615000Y37375000D03*
X31615000Y37875000D03*
X31615000Y38375000D03*
X31615000Y38875000D03*
X31615000Y39375000D03*
X31615000Y39875000D03*
D21*
X32315000Y40575000D03*
X32815000Y40575000D03*
X33315000Y40575000D03*
X33815000Y40575000D03*
X34315000Y40575000D03*
X34815000Y40575000D03*
X35315000Y40575000D03*
X35815000Y40575000D03*
X36315000Y40575000D03*
X36815000Y40575000D03*
%TD*%
%TO.C,IC5*%
X85105000Y35135000D03*
X85605000Y35135000D03*
X86105000Y35135000D03*
X86605000Y35135000D03*
X87105000Y35135000D03*
X87605000Y35135000D03*
X88105000Y35135000D03*
X88605000Y35135000D03*
X89105000Y35135000D03*
X89605000Y35135000D03*
D20*
X90305000Y35835000D03*
X90305000Y36335000D03*
X90305000Y36835000D03*
X90305000Y37335000D03*
X90305000Y37835000D03*
X90305000Y38335000D03*
X90305000Y38835000D03*
X90305000Y39335000D03*
X90305000Y39835000D03*
X90305000Y40335000D03*
D21*
X89605000Y41035000D03*
X89105000Y41035000D03*
X88605000Y41035000D03*
X88105000Y41035000D03*
X87605000Y41035000D03*
X87105000Y41035000D03*
X86605000Y41035000D03*
X86105000Y41035000D03*
X85605000Y41035000D03*
X85105000Y41035000D03*
D20*
X84405000Y40335000D03*
X84405000Y39835000D03*
X84405000Y39335000D03*
X84405000Y38835000D03*
X84405000Y38335000D03*
X84405000Y37835000D03*
X84405000Y37335000D03*
X84405000Y36835000D03*
X84405000Y36335000D03*
X84405000Y35835000D03*
D19*
X87355000Y38085000D03*
%TD*%
D22*
%TO.C,R11*%
X46980000Y56860000D03*
X48580000Y56860000D03*
%TD*%
%TO.C,R12*%
X43530000Y56780000D03*
X45130000Y56780000D03*
%TD*%
%TO.C,R13*%
X46970000Y58470000D03*
X48570000Y58470000D03*
%TD*%
%TO.C,R14*%
X45080000Y58450000D03*
X43480000Y58450000D03*
%TD*%
%TO.C,R16*%
X53290000Y59660000D03*
X54890000Y59660000D03*
%TD*%
D23*
%TO.C,R17*%
X38840000Y53860000D03*
X38840000Y55460000D03*
%TD*%
%TO.C,R18*%
X41420000Y53890000D03*
X41420000Y55490000D03*
%TD*%
D22*
%TO.C,R19*%
X76550000Y48350000D03*
X78150000Y48350000D03*
%TD*%
%TO.C,R20*%
X82700000Y25590000D03*
X81100000Y25590000D03*
%TD*%
%TO.C,R21*%
X48140000Y28070000D03*
X46540000Y28070000D03*
%TD*%
D23*
%TO.C,R22*%
X36330000Y54650000D03*
X36330000Y56250000D03*
%TD*%
%TO.C,R23*%
X33720000Y54690000D03*
X33720000Y56290000D03*
%TD*%
D22*
%TO.C,R24*%
X79650000Y28660000D03*
X78050000Y28660000D03*
%TD*%
D23*
%TO.C,R25*%
X37790000Y44540000D03*
X37790000Y46140000D03*
%TD*%
D22*
%TO.C,R26*%
X40090000Y22680000D03*
X38490000Y22680000D03*
%TD*%
%TO.C,R28*%
X42590000Y43030000D03*
X40990000Y43030000D03*
%TD*%
D23*
%TO.C,R27*%
X78940000Y32920000D03*
X78940000Y34520000D03*
%TD*%
D22*
%TO.C,R15*%
X53290000Y61280000D03*
X54890000Y61280000D03*
%TD*%
D23*
%TO.C,R7*%
X84490000Y20840000D03*
X84490000Y19240000D03*
%TD*%
D22*
%TO.C,R9*%
X52550000Y49760000D03*
X54150000Y49760000D03*
%TD*%
%TO.C,R10*%
X48840000Y49770000D03*
X50440000Y49770000D03*
%TD*%
D24*
%TO.C,R5*%
X83760000Y22880000D03*
X81860000Y22880000D03*
%TD*%
D25*
%TO.C,S2*%
X45975000Y22635000D03*
X51975000Y22635000D03*
%TD*%
%TO.C,S1*%
X74815000Y28735000D03*
X68815000Y28735000D03*
%TD*%
D26*
%TO.C,Z10*%
X44425000Y35350000D03*
X46725000Y35350000D03*
%TD*%
%TO.C,Z9*%
X44445000Y37860000D03*
X46745000Y37860000D03*
%TD*%
%TO.C,Z8*%
X73775000Y39730000D03*
X71475000Y39730000D03*
%TD*%
%TO.C,Z7*%
X44435000Y40370000D03*
X46735000Y40370000D03*
%TD*%
%TO.C,Z6*%
X73815000Y37150000D03*
X71515000Y37150000D03*
%TD*%
%TO.C,Z5*%
X73825000Y34620000D03*
X71525000Y34620000D03*
%TD*%
D27*
%TO.C,Z4*%
X79335000Y18330000D03*
X79335000Y16030000D03*
%TD*%
%TO.C,Z3*%
X34905000Y7820000D03*
X34905000Y5520000D03*
%TD*%
D26*
%TO.C,Z2*%
X88825000Y23330000D03*
X86525000Y23330000D03*
%TD*%
D28*
%TO.C,IC4*%
X50026000Y64055000D03*
X50026000Y62785000D03*
X50026000Y61515000D03*
X50026000Y60245000D03*
X44604000Y60245000D03*
X44604000Y61515000D03*
X44604000Y62785000D03*
X44604000Y64055000D03*
%TD*%
D29*
%TO.C,Q1*%
X64025000Y57315000D03*
X64675000Y55415000D03*
X63375000Y55415000D03*
%TD*%
%TO.C,Q2*%
X59335000Y57305000D03*
X59985000Y55405000D03*
X58685000Y55405000D03*
%TD*%
D30*
%TO.C,J2*%
X30460000Y60100000D03*
X30460000Y65050000D03*
X33000000Y60100000D03*
X33000000Y65050000D03*
X35540000Y60100000D03*
X35540000Y65050000D03*
X38080000Y60100000D03*
X38080000Y65050000D03*
%TD*%
%TO.C,J1*%
X70860000Y59530000D03*
X70860000Y64480000D03*
X73400000Y59530000D03*
X73400000Y64480000D03*
X75940000Y59530000D03*
X75940000Y64480000D03*
X78480000Y59530000D03*
X78480000Y64480000D03*
%TD*%
D31*
%TO.C,IC1*%
X38560000Y11770000D03*
X38560000Y8790000D03*
X42240000Y8790000D03*
D32*
X40385000Y10280000D03*
D31*
X42240000Y11770000D03*
%TD*%
%TO.C,IC2*%
X88990000Y11000000D03*
X88990000Y13980000D03*
X85310000Y13980000D03*
D32*
X87165000Y12490000D03*
D31*
X85310000Y11000000D03*
%TD*%
%TO.C,IC3*%
X26000000Y8010000D03*
X26000000Y5030000D03*
X29680000Y5030000D03*
D32*
X27825000Y6520000D03*
D31*
X29680000Y8010000D03*
%TD*%
D33*
%TO.C,U1*%
X57905000Y46355000D03*
X57905000Y44355000D03*
X57905000Y42355000D03*
X57905000Y40355000D03*
X57905000Y38355000D03*
X57905000Y36355000D03*
X57905000Y34355000D03*
X57905000Y32355000D03*
X57905000Y30355000D03*
X57905000Y28355000D03*
D34*
X62305000Y25955000D03*
X62305000Y48755000D03*
%TD*%
D35*
%TO.C,C2*%
X69385000Y10330000D03*
X69385000Y6430000D03*
%TD*%
%TO.C,C1*%
X55150000Y10075000D03*
X55150000Y6175000D03*
%TD*%
D12*
%TO.C,U14*%
X78850000Y46320000D03*
X79770000Y46320000D03*
%TD*%
%TO.C,U13*%
X41720000Y16050000D03*
X42640000Y16050000D03*
%TD*%
%TO.C,U23*%
X27690000Y34160000D03*
X26770000Y34160000D03*
%TD*%
D13*
%TO.C,U9*%
X96760000Y5470000D03*
X96760000Y4550000D03*
%TD*%
%TO.C,U12*%
X42560000Y65110000D03*
X42560000Y64190000D03*
%TD*%
D12*
%TO.C,U17*%
X38520000Y24460000D03*
X39440000Y24460000D03*
%TD*%
%TO.C,U22*%
X95140000Y40540000D03*
X96060000Y40540000D03*
%TD*%
%TO.C,U21*%
X41860000Y32860000D03*
X42780000Y32860000D03*
%TD*%
%TO.C,U20*%
X77750000Y44160000D03*
X76830000Y44160000D03*
%TD*%
D13*
%TO.C,U19*%
X42610000Y35080000D03*
X42610000Y34160000D03*
%TD*%
%TO.C,U18*%
X78820000Y40500000D03*
X78820000Y41420000D03*
%TD*%
D36*
%TO.C,U70*%
X15375000Y4245000D03*
X16575000Y4245000D03*
X17775000Y4245000D03*
%TD*%
D37*
%TO.C,U2*%
X58000000Y18060000D03*
X58000000Y22260000D03*
%TD*%
D38*
%TO.C,U5*%
X76975000Y21510000D03*
X75675000Y21510000D03*
X76325000Y23060000D03*
%TD*%
%TO.C,U7*%
X72435000Y21510000D03*
X71135000Y21510000D03*
X71785000Y23060000D03*
%TD*%
D39*
%TO.C,U8*%
X32410000Y11820000D03*
X28960000Y11820000D03*
%TD*%
D40*
%TO.C,R8*%
X75162500Y18452500D03*
X75162500Y17427500D03*
%TD*%
%TO.C,R6*%
X37712500Y4277500D03*
X37712500Y5302500D03*
%TD*%
%TO.C,R3*%
X40352500Y4257500D03*
X40352500Y5282500D03*
%TD*%
%TO.C,R4*%
X72542500Y18482500D03*
X72542500Y17457500D03*
%TD*%
D41*
%TO.C,LED1*%
X64155000Y61815000D03*
X64155000Y63815000D03*
%TD*%
%TO.C,LED2*%
X59375000Y61765000D03*
X59375000Y63765000D03*
%TD*%
D42*
%TO.C,U3*%
X51915000Y32145000D03*
D43*
X51915000Y30245000D03*
%TD*%
D44*
%TO.C,U74*%
X110645000Y48580000D03*
X109845000Y48580000D03*
%TD*%
%TO.C,U72*%
X110645000Y53660000D03*
X109845000Y53660000D03*
%TD*%
%TO.C,U71*%
X110645000Y15560000D03*
X109845000Y15560000D03*
%TD*%
%TO.C,U73*%
X110645000Y51120000D03*
X109845000Y51120000D03*
%TD*%
%TO.C,U106*%
X9235000Y58723800D03*
X8435000Y58723800D03*
%TD*%
%TO.C,U105*%
X9235000Y56183800D03*
X8435000Y56183800D03*
%TD*%
%TO.C,U104*%
X8435000Y53643800D03*
X9235000Y53643800D03*
%TD*%
%TO.C,U103*%
X8435000Y51103800D03*
X9235000Y51103800D03*
%TD*%
%TO.C,U102*%
X8435000Y48563800D03*
X9235000Y48563800D03*
%TD*%
%TO.C,U101*%
X8435000Y46023800D03*
X9235000Y46023800D03*
%TD*%
%TO.C,U100*%
X8435000Y43483800D03*
X9235000Y43483800D03*
%TD*%
%TO.C,U99*%
X8435000Y40943800D03*
X9235000Y40943800D03*
%TD*%
%TO.C,U98*%
X8435000Y38403800D03*
X9235000Y38403800D03*
%TD*%
%TO.C,U97*%
X8435000Y35863800D03*
X9235000Y35863800D03*
%TD*%
%TO.C,U96*%
X8435000Y33323800D03*
X9235000Y33323800D03*
%TD*%
%TO.C,U95*%
X9235000Y30783800D03*
X8435000Y30783800D03*
%TD*%
%TO.C,U94*%
X8435000Y28243800D03*
X9235000Y28243800D03*
%TD*%
%TO.C,U93*%
X8435000Y25703800D03*
X9235000Y25703800D03*
%TD*%
%TO.C,U92*%
X8435000Y23163800D03*
X9235000Y23163800D03*
%TD*%
%TO.C,U91*%
X8435000Y20623800D03*
X9235000Y20623800D03*
%TD*%
%TO.C,U90*%
X8435000Y18083800D03*
X9235000Y18083800D03*
%TD*%
%TO.C,U89*%
X8435000Y15543800D03*
X9235000Y15543800D03*
%TD*%
%TO.C,U88*%
X8435000Y13003800D03*
X9235000Y13003800D03*
%TD*%
%TO.C,U87*%
X110645000Y13020000D03*
X109845000Y13020000D03*
%TD*%
%TO.C,U86*%
X109845000Y18100000D03*
X110645000Y18100000D03*
%TD*%
%TO.C,U85*%
X109845000Y20640000D03*
X110645000Y20640000D03*
%TD*%
%TO.C,U84*%
X109845000Y23180000D03*
X110645000Y23180000D03*
%TD*%
%TO.C,U83*%
X109845000Y25720000D03*
X110645000Y25720000D03*
%TD*%
%TO.C,U82*%
X109845000Y28260000D03*
X110645000Y28260000D03*
%TD*%
%TO.C,U81*%
X109845000Y30800000D03*
X110645000Y30800000D03*
%TD*%
%TO.C,U80*%
X109845000Y33340000D03*
X110645000Y33340000D03*
%TD*%
%TO.C,U79*%
X110645000Y35880000D03*
X109845000Y35880000D03*
%TD*%
%TO.C,U78*%
X110645000Y38420000D03*
X109845000Y38420000D03*
%TD*%
%TO.C,U77*%
X110645000Y40960000D03*
X109845000Y40960000D03*
%TD*%
%TO.C,U76*%
X110645000Y43500000D03*
X109845000Y43500000D03*
%TD*%
%TO.C,U75*%
X110645000Y46040000D03*
X109845000Y46040000D03*
%TD*%
D45*
%TO.C,U110*%
X57960000Y67590000D03*
X59060000Y67590000D03*
%TD*%
%TO.C,U109*%
X65290000Y67700000D03*
X64190000Y67700000D03*
%TD*%
%TO.C,U108*%
X59410000Y53580000D03*
X58310000Y53580000D03*
%TD*%
%TO.C,U107*%
X64510000Y53590000D03*
X63410000Y53590000D03*
%TD*%
%TO.C,U69*%
X13110000Y58723800D03*
X12010000Y58723800D03*
%TD*%
%TO.C,U68*%
X13110000Y56183800D03*
X12010000Y56183800D03*
%TD*%
%TO.C,U67*%
X12010000Y53643800D03*
X13110000Y53643800D03*
%TD*%
%TO.C,U66*%
X12010000Y51103800D03*
X13110000Y51103800D03*
%TD*%
%TO.C,U65*%
X12010000Y48563800D03*
X13110000Y48563800D03*
%TD*%
%TO.C,U64*%
X12010000Y46023800D03*
X13110000Y46023800D03*
%TD*%
%TO.C,U63*%
X12010000Y43483800D03*
X13110000Y43483800D03*
%TD*%
%TO.C,U62*%
X12010000Y40943800D03*
X13110000Y40943800D03*
%TD*%
%TO.C,U61*%
X12010000Y38403800D03*
X13110000Y38403800D03*
%TD*%
%TO.C,U60*%
X12010000Y35863800D03*
X13110000Y35863800D03*
%TD*%
%TO.C,U59*%
X12010000Y33323800D03*
X13110000Y33323800D03*
%TD*%
%TO.C,U58*%
X13110000Y30783800D03*
X12010000Y30783800D03*
%TD*%
%TO.C,U57*%
X12010000Y28243800D03*
X13110000Y28243800D03*
%TD*%
%TO.C,U56*%
X12010000Y25703800D03*
X13110000Y25703800D03*
%TD*%
%TO.C,U55*%
X12010000Y23163800D03*
X13110000Y23163800D03*
%TD*%
%TO.C,U54*%
X12010000Y20623800D03*
X13110000Y20623800D03*
%TD*%
%TO.C,U53*%
X12010000Y18083800D03*
X13110000Y18083800D03*
%TD*%
%TO.C,U52*%
X13110000Y15543800D03*
X12010000Y15543800D03*
%TD*%
%TO.C,U51*%
X12010000Y13003800D03*
X13110000Y13003800D03*
%TD*%
%TO.C,U50*%
X106540000Y13020000D03*
X105440000Y13020000D03*
%TD*%
%TO.C,U49*%
X106540000Y18100000D03*
X105440000Y18100000D03*
%TD*%
%TO.C,U48*%
X106540000Y20640000D03*
X105440000Y20640000D03*
%TD*%
%TO.C,U47*%
X106540000Y23180000D03*
X105440000Y23180000D03*
%TD*%
%TO.C,U46*%
X106540000Y25720000D03*
X105440000Y25720000D03*
%TD*%
%TO.C,U45*%
X106540000Y28260000D03*
X105440000Y28260000D03*
%TD*%
%TO.C,U44*%
X105440000Y30800000D03*
X106540000Y30800000D03*
%TD*%
%TO.C,U43*%
X105440000Y33340000D03*
X106540000Y33340000D03*
%TD*%
%TO.C,U42*%
X105440000Y35880000D03*
X106540000Y35880000D03*
%TD*%
%TO.C,U41*%
X105440000Y38420000D03*
X106540000Y38420000D03*
%TD*%
%TO.C,U40*%
X105440000Y40960000D03*
X106540000Y40960000D03*
%TD*%
%TO.C,U39*%
X105440000Y43500000D03*
X106540000Y43500000D03*
%TD*%
%TO.C,U38*%
X105440000Y46040000D03*
X106540000Y46040000D03*
%TD*%
%TO.C,U37*%
X105440000Y48580000D03*
X106540000Y48580000D03*
%TD*%
%TO.C,U36*%
X106540000Y51120000D03*
X105440000Y51120000D03*
%TD*%
%TO.C,U35*%
X106540000Y15560000D03*
X105440000Y15560000D03*
%TD*%
%TO.C,U34*%
X106540000Y53660000D03*
X105440000Y53660000D03*
%TD*%
D46*
%TO.C,U33*%
X15370000Y8280000D03*
X15370000Y7180000D03*
%TD*%
%TO.C,U32*%
X17900000Y7220000D03*
X17900000Y8320000D03*
%TD*%
D45*
%TO.C,U16*%
X40170000Y20650000D03*
X39070000Y20650000D03*
%TD*%
%TO.C,U11*%
X95150000Y10070000D03*
X94050000Y10070000D03*
%TD*%
D24*
%TO.C,U29*%
X50520000Y37870000D03*
X48620000Y37870000D03*
%TD*%
%TO.C,U28*%
X68760000Y37070000D03*
X66860000Y37070000D03*
%TD*%
%TO.C,U27*%
X68850000Y34580000D03*
X66950000Y34580000D03*
%TD*%
%TO.C,U26*%
X48590000Y40280000D03*
X50490000Y40280000D03*
%TD*%
D47*
%TO.C,U25*%
X70780000Y44590000D03*
X70780000Y42690000D03*
%TD*%
%TO.C,U24*%
X68580000Y42670000D03*
X68580000Y44570000D03*
%TD*%
D24*
%TO.C,U31*%
X50500000Y35330000D03*
X48600000Y35330000D03*
%TD*%
%TO.C,U30*%
X68860000Y39670000D03*
X66960000Y39670000D03*
%TD*%
D48*
%TO.C,U6*%
X51510000Y44775000D03*
X53410000Y44775000D03*
X52460000Y46875000D03*
%TD*%
%TO.C,U4*%
X46055000Y44720000D03*
X47955000Y44720000D03*
X47005000Y46820000D03*
%TD*%
D49*
%TO.C,U10*%
X94880000Y8290000D03*
X93930000Y8290000D03*
X92980000Y8290000D03*
X92980000Y5790000D03*
X94880000Y5790000D03*
%TD*%
%TO.C,U15*%
X39900000Y18540000D03*
X38950000Y18540000D03*
X38000000Y18540000D03*
X38000000Y16040000D03*
X39900000Y16040000D03*
%TD*%
M02*
