M48
; DRILL file {KiCad (6.0.6)} date Thu Aug 17 02:29:23 2023
; FORMAT={-:-/ absolute / metric / decimal}
; #@! TF.CreationDate,2023-08-17T02:29:23+09:00
; #@! TF.GenerationSoftware,Kicad,Pcbnew,(6.0.6)
; #@! TF.FileFunction,Plated,1,4,PTH
FMAT,2
METRIC
; #@! TA.AperFunction,Plated,PTH,ViaDrill
T1C0.400
; #@! TA.AperFunction,Plated,PTH,ComponentDrill
T2C1.000
%
G90
G05
T1
X110.76Y-113.5
X110.77Y-105.88
X110.77Y-108.42
X110.77Y-110.96
X110.77Y-116.04
X110.77Y-118.58
X110.97Y-65.6
X110.97Y-68.14
X110.97Y-70.68
X110.97Y-73.22
X110.97Y-75.76
X110.97Y-78.3
X113.24Y-85.65
X113.3Y-113.5
X113.31Y-108.42
X113.31Y-110.96
X113.31Y-116.04
X113.31Y-118.58
X113.51Y-65.6
X113.51Y-68.14
X113.51Y-70.68
X113.51Y-73.22
X113.51Y-75.76
X115.85Y-110.96
X115.85Y-118.58
X115.86Y-113.5
X115.86Y-116.04
X115.86Y-121.12
X115.86Y-123.66
X115.86Y-126.2
X116.05Y-57.98
X116.05Y-60.52
X116.05Y-63.06
X116.05Y-65.6
X116.05Y-68.14
X116.05Y-70.68
X116.05Y-73.22
X118.39Y-118.58
X118.4Y-113.5
X118.4Y-116.04
X118.4Y-121.12
X118.4Y-123.66
X118.4Y-126.2
X118.59Y-57.98
X118.59Y-60.52
X118.59Y-63.06
X118.59Y-65.6
X118.59Y-68.14
X118.59Y-70.68
X119.93Y-81.17
X119.93Y-95.0
X119.96Y-89.61
X120.93Y-118.58
X120.94Y-113.5
X120.94Y-116.04
X120.94Y-121.12
X120.94Y-123.66
X120.94Y-126.2
X121.13Y-57.98
X121.13Y-60.52
X121.13Y-63.06
X121.13Y-65.6
X121.13Y-68.14
X122.18Y-81.18
X122.18Y-89.6
X123.48Y-116.04
X123.48Y-118.58
X123.48Y-121.12
X123.48Y-123.66
X123.48Y-126.2
X123.67Y-57.98
X123.67Y-60.52
X123.67Y-63.06
X123.67Y-65.6
X126.01Y-123.66
X126.01Y-126.2
X126.02Y-118.58
X126.02Y-121.12
X126.21Y-57.98
X126.21Y-60.52
X126.21Y-63.06
X128.16Y-103.34
X128.35Y-98.04
X128.36Y-81.18
X128.37Y-89.6
X128.39Y-72.75
X128.55Y-123.66
X128.55Y-126.2
X128.56Y-121.12
X128.75Y-57.98
X128.75Y-60.52
X130.58Y-72.75
X130.59Y-89.61
X130.63Y-98.03
X130.64Y-81.17
X131.1Y-123.66
X131.1Y-126.2
X131.29Y-57.98
X131.29Y-60.52
X133.64Y-123.67
X133.64Y-126.21
X133.83Y-57.98
X133.83Y-60.52
X135.98Y-64.86
X136.1Y-105.95
X136.18Y-123.67
X136.18Y-126.21
X136.37Y-57.98
X136.37Y-60.52
X136.79Y-81.16
X136.81Y-89.59
X136.81Y-98.03
X136.83Y-72.74
X138.5Y-112.53
X138.72Y-123.66
X138.72Y-126.2
X138.91Y-57.98
X138.91Y-60.52
X139.02Y-72.75
X139.04Y-89.61
X139.04Y-98.03
X139.08Y-81.16
X139.18Y-67.45
X141.26Y-123.66
X141.26Y-126.2
X141.45Y-57.98
X141.45Y-60.52
X143.55Y-99.0
X143.755Y-71.265
X143.8Y-123.66
X143.8Y-126.2
X143.99Y-57.98
X143.99Y-60.52
X145.23Y-81.18
X145.23Y-89.6
X146.34Y-123.66
X146.34Y-126.2
X146.53Y-57.98
X146.53Y-60.52
X147.48Y-81.16
X147.49Y-89.6
X147.78Y-75.61
X148.88Y-123.66
X148.88Y-126.2
X149.07Y-57.98
X149.07Y-60.52
X151.42Y-123.66
X151.42Y-126.2
X151.61Y-57.98
X151.61Y-60.52
X151.82Y-79.7
X152.47Y-90.5
X153.96Y-123.66
X153.96Y-126.2
X154.15Y-57.98
X154.15Y-60.52
X154.3Y-85.35
X154.85Y-113.17
X156.5Y-123.66
X156.5Y-126.2
X156.69Y-57.98
X156.69Y-60.52
X159.04Y-123.66
X159.04Y-126.2
X159.23Y-57.98
X159.23Y-60.52
X161.58Y-123.66
X161.58Y-126.2
X161.77Y-57.98
X161.77Y-60.52
X164.13Y-126.2
X164.31Y-57.98
X164.31Y-60.52
X166.67Y-126.21
X166.85Y-57.98
X166.85Y-60.52
X169.21Y-126.21
X169.39Y-57.98
X169.39Y-60.52
X171.41Y-89.15
X171.43Y-95.37
X171.75Y-126.2
X171.93Y-57.98
X171.93Y-60.52
X172.01Y-81.88
X172.2Y-75.48
X172.55Y-115.87
X174.29Y-126.2
X174.47Y-57.98
X174.47Y-60.52
X176.81Y-123.65
X176.82Y-121.12
X176.83Y-126.2
X177.01Y-57.98
X177.01Y-60.52
X179.35Y-121.11
X179.35Y-123.65
X179.37Y-126.2
X179.55Y-57.98
X179.55Y-60.52
X181.88Y-118.57
X181.89Y-121.11
X181.89Y-123.65
X181.91Y-126.2
X182.09Y-57.98
X182.09Y-60.52
X184.43Y-118.58
X184.44Y-121.12
X184.44Y-123.66
X184.45Y-126.2
X184.63Y-57.98
X184.63Y-60.52
X186.99Y-126.2
X189.53Y-126.2
T2
X190.11Y-68.0
X190.11Y-70.54
X190.11Y-73.08
X190.11Y-75.62
X190.11Y-78.16
X190.11Y-80.7
X190.11Y-83.24
X190.11Y-85.78
X190.11Y-88.32
X190.11Y-90.86
X190.11Y-93.4
X190.11Y-95.94
X190.11Y-98.48
X190.11Y-101.02
X190.11Y-103.56
X190.11Y-106.1
X190.11Y-108.64
X190.11Y-111.18
X190.11Y-113.72
X190.11Y-116.26
T0
M30
