%TF.GenerationSoftware,KiCad,Pcbnew,(6.0.6)*%
%TF.CreationDate,2023-08-17T02:32:06+09:00*%
%TF.ProjectId,SensorBoardRH,53656e73-6f72-4426-9f61-726452482e6b,rev?*%
%TF.SameCoordinates,Original*%
%TF.FileFunction,Legend,Top*%
%TF.FilePolarity,Positive*%
%FSLAX46Y46*%
G04 Gerber Fmt 4.6, Leading zero omitted, Abs format (unit mm)*
G04 Created by KiCad (PCBNEW (6.0.6)) date 2023-08-17 02:32:06*
%MOMM*%
%LPD*%
G01*
G04 APERTURE LIST*
%ADD10C,0.150000*%
%ADD11C,0.120000*%
G04 APERTURE END LIST*
D10*
%TO.C,J1*%
X106801666Y-116732380D02*
X106801666Y-117446666D01*
X106754047Y-117589523D01*
X106658809Y-117684761D01*
X106515952Y-117732380D01*
X106420714Y-117732380D01*
X107801666Y-117732380D02*
X107230238Y-117732380D01*
X107515952Y-117732380D02*
X107515952Y-116732380D01*
X107420714Y-116875238D01*
X107325476Y-116970476D01*
X107230238Y-117018095D01*
D11*
X101420000Y-91770000D02*
X107420000Y-91770000D01*
X107420000Y-67960000D02*
X107420000Y-116340000D01*
X110477071Y-112090000D02*
X110080000Y-112090000D01*
X107420000Y-77290000D02*
X101420000Y-77290000D01*
X101420000Y-84150000D02*
X107420000Y-84150000D01*
X101420000Y-77290000D02*
X101420000Y-76530000D01*
X110477071Y-102690000D02*
X110080000Y-102690000D01*
X107420000Y-100150000D02*
X101420000Y-100150000D01*
X110477071Y-79830000D02*
X110080000Y-79830000D01*
X110080000Y-111200000D02*
X107420000Y-111200000D01*
X101420000Y-84910000D02*
X101420000Y-84150000D01*
X101420000Y-112090000D02*
X107420000Y-112090000D01*
X110080000Y-103580000D02*
X107420000Y-103580000D01*
X101420000Y-71450000D02*
X107420000Y-71450000D01*
X101420000Y-100150000D02*
X101420000Y-99390000D01*
X107420000Y-97610000D02*
X101420000Y-97610000D01*
X101420000Y-107770000D02*
X101420000Y-107010000D01*
X110477071Y-110310000D02*
X110080000Y-110310000D01*
X110477071Y-97610000D02*
X110080000Y-97610000D01*
X110477071Y-95070000D02*
X110080000Y-95070000D01*
X107420000Y-89990000D02*
X101420000Y-89990000D01*
X107420000Y-84910000D02*
X101420000Y-84910000D01*
X110477071Y-107010000D02*
X110080000Y-107010000D01*
X107420000Y-95070000D02*
X101420000Y-95070000D01*
X101420000Y-99390000D02*
X107420000Y-99390000D01*
X110410000Y-114630000D02*
X110080000Y-114630000D01*
X107420000Y-72210000D02*
X101420000Y-72210000D01*
X101420000Y-96850000D02*
X107420000Y-96850000D01*
X107420000Y-115390000D02*
X101420000Y-115390000D01*
X107420000Y-115330000D02*
X101420000Y-115330000D01*
X107420000Y-105230000D02*
X101420000Y-105230000D01*
X101420000Y-79070000D02*
X107420000Y-79070000D01*
X110080000Y-80720000D02*
X107420000Y-80720000D01*
X110477071Y-112850000D02*
X110080000Y-112850000D01*
X110477071Y-104470000D02*
X110080000Y-104470000D01*
X110477071Y-101930000D02*
X110080000Y-101930000D01*
X107420000Y-74750000D02*
X101420000Y-74750000D01*
X110477071Y-69670000D02*
X110080000Y-69670000D01*
X101420000Y-86690000D02*
X107420000Y-86690000D01*
X101420000Y-101930000D02*
X107420000Y-101930000D01*
X101420000Y-105230000D02*
X101420000Y-104470000D01*
X101420000Y-87450000D02*
X101420000Y-86690000D01*
X110477071Y-76530000D02*
X110080000Y-76530000D01*
X110477071Y-89990000D02*
X110080000Y-89990000D01*
X101420000Y-114630000D02*
X107420000Y-114630000D01*
X101420000Y-79830000D02*
X101420000Y-79070000D01*
X110080000Y-70560000D02*
X107420000Y-70560000D01*
X107420000Y-115210000D02*
X101420000Y-115210000D01*
X110477071Y-72210000D02*
X110080000Y-72210000D01*
X101420000Y-69670000D02*
X101420000Y-68910000D01*
X110080000Y-73100000D02*
X107420000Y-73100000D01*
X110477071Y-82370000D02*
X110080000Y-82370000D01*
X110477071Y-77290000D02*
X110080000Y-77290000D01*
X110080000Y-101040000D02*
X107420000Y-101040000D01*
X110477071Y-91770000D02*
X110080000Y-91770000D01*
X110080000Y-98500000D02*
X107420000Y-98500000D01*
X110477071Y-68910000D02*
X110080000Y-68910000D01*
X101420000Y-102690000D02*
X101420000Y-101930000D01*
X110477071Y-86690000D02*
X110080000Y-86690000D01*
X110477071Y-109550000D02*
X110080000Y-109550000D01*
X110410000Y-115390000D02*
X110080000Y-115390000D01*
X101420000Y-76530000D02*
X107420000Y-76530000D01*
X101420000Y-82370000D02*
X101420000Y-81610000D01*
X110477071Y-84910000D02*
X110080000Y-84910000D01*
X110477071Y-87450000D02*
X110080000Y-87450000D01*
X101420000Y-94310000D02*
X107420000Y-94310000D01*
X107420000Y-82370000D02*
X101420000Y-82370000D01*
X101420000Y-72210000D02*
X101420000Y-71450000D01*
X110080000Y-75640000D02*
X107420000Y-75640000D01*
X110080000Y-90880000D02*
X107420000Y-90880000D01*
X101420000Y-73990000D02*
X107420000Y-73990000D01*
X107420000Y-116340000D02*
X110080000Y-116340000D01*
X107420000Y-79830000D02*
X101420000Y-79830000D01*
X101420000Y-115390000D02*
X101420000Y-114630000D01*
X107420000Y-110310000D02*
X101420000Y-110310000D01*
X110080000Y-83260000D02*
X107420000Y-83260000D01*
X107420000Y-92530000D02*
X101420000Y-92530000D01*
X110080000Y-85800000D02*
X107420000Y-85800000D01*
X112790000Y-115010000D02*
X112790000Y-116280000D01*
X112790000Y-116280000D02*
X111520000Y-116280000D01*
X101420000Y-89990000D02*
X101420000Y-89230000D01*
X110080000Y-113740000D02*
X107420000Y-113740000D01*
X110477071Y-105230000D02*
X110080000Y-105230000D01*
X110080000Y-106120000D02*
X107420000Y-106120000D01*
X110477071Y-74750000D02*
X110080000Y-74750000D01*
X101420000Y-97610000D02*
X101420000Y-96850000D01*
X110080000Y-67960000D02*
X107420000Y-67960000D01*
X101420000Y-92530000D02*
X101420000Y-91770000D01*
X110477071Y-107770000D02*
X110080000Y-107770000D01*
X107420000Y-114970000D02*
X101420000Y-114970000D01*
X110477071Y-92530000D02*
X110080000Y-92530000D01*
X101420000Y-107010000D02*
X107420000Y-107010000D01*
X110477071Y-94310000D02*
X110080000Y-94310000D01*
X110080000Y-95960000D02*
X107420000Y-95960000D01*
X110080000Y-93420000D02*
X107420000Y-93420000D01*
X110477071Y-81610000D02*
X110080000Y-81610000D01*
X101420000Y-104470000D02*
X107420000Y-104470000D01*
X107420000Y-107770000D02*
X101420000Y-107770000D01*
X110080000Y-108660000D02*
X107420000Y-108660000D01*
X107420000Y-102690000D02*
X101420000Y-102690000D01*
X110477071Y-99390000D02*
X110080000Y-99390000D01*
X107420000Y-115090000D02*
X101420000Y-115090000D01*
X101420000Y-95070000D02*
X101420000Y-94310000D01*
X110477071Y-71450000D02*
X110080000Y-71450000D01*
X110477071Y-84150000D02*
X110080000Y-84150000D01*
X110080000Y-78180000D02*
X107420000Y-78180000D01*
X101420000Y-81610000D02*
X107420000Y-81610000D01*
X110477071Y-73990000D02*
X110080000Y-73990000D01*
X110477071Y-100150000D02*
X110080000Y-100150000D01*
X107420000Y-114730000D02*
X101420000Y-114730000D01*
X107420000Y-87450000D02*
X101420000Y-87450000D01*
X110080000Y-116340000D02*
X110080000Y-67960000D01*
X101420000Y-112850000D02*
X101420000Y-112090000D01*
X101420000Y-110310000D02*
X101420000Y-109550000D01*
X110080000Y-88340000D02*
X107420000Y-88340000D01*
X101420000Y-89230000D02*
X107420000Y-89230000D01*
X101420000Y-74750000D02*
X101420000Y-73990000D01*
X110477071Y-79070000D02*
X110080000Y-79070000D01*
X110477071Y-89230000D02*
X110080000Y-89230000D01*
X110477071Y-96850000D02*
X110080000Y-96850000D01*
X107420000Y-114850000D02*
X101420000Y-114850000D01*
X107420000Y-69670000D02*
X101420000Y-69670000D01*
X107420000Y-112850000D02*
X101420000Y-112850000D01*
X101420000Y-109550000D02*
X107420000Y-109550000D01*
X101420000Y-68910000D02*
X107420000Y-68910000D01*
%TD*%
M02*
