M48
; DRILL file {KiCad (6.0.6)} date Wed Aug 16 17:33:50 2023
; FORMAT={-:-/ absolute / metric / decimal}
; #@! TF.CreationDate,2023-08-16T17:33:50+09:00
; #@! TF.GenerationSoftware,Kicad,Pcbnew,(6.0.6)
; #@! TF.FileFunction,Plated,1,4,PTH
FMAT,2
METRIC
; #@! TA.AperFunction,Plated,PTH,ViaDrill
T1C0.400
; #@! TA.AperFunction,Plated,PTH,ComponentDrill
T2C1.000
%
G90
G05
T1
X1.819Y6.225
X3.66Y6.31
X5.76Y64.2
X5.79Y5.93
X5.971Y65.451
X6.01Y67.79
X6.8Y1.46
X7.006Y3.925
X7.43Y64.66
X7.64Y67.29
X8.14Y6.27
X8.48Y66.0
X9.1Y5.01
X9.223Y3.255
X9.568Y63.988
X9.6Y1.41
X9.74Y67.0
X10.948Y65.493
X10.979Y6.016
X11.147Y4.175
X11.4Y2.0
X11.74Y64.28
X14.42Y64.071
X15.31Y15.55
X15.31Y9.33
X16.53Y0.78
X16.59Y8.01
X17.26Y14.02
X17.9Y9.42
X19.53Y62.79
X20.252Y10.505
X20.307Y8.637
X21.47Y3.64
X21.534Y12.513
X21.67Y7.47
X21.87Y1.46
X22.15Y63.81
X22.4Y5.31
X22.74Y60.81
X23.37Y49.17
X23.43Y12.35
X23.86Y59.41
X24.42Y60.58
X24.667Y9.49
X24.74Y1.32
X25.77Y16.42
X25.847Y33.862
X26.05Y12.62
X26.076Y14.66
X26.554Y58.674
X26.57Y57.37
X26.8Y1.4
X26.84Y17.79
X27.127Y66.833
X27.38Y2.84
X27.45Y56.15
X27.903Y15.448
X28.225Y61.105
X28.42Y13.189
X28.56Y43.76
X28.8Y3.57
X28.84Y9.45
X28.97Y65.31
X28.97Y54.75
X29.048Y57.282
X29.452Y1.541
X29.79Y19.31
X30.02Y42.71
X30.46Y57.636
X30.61Y41.41
X30.77Y3.6
X30.8Y20.96
X31.003Y22.715
X31.044Y8.299
X31.852Y57.842
X31.87Y5.84
X31.89Y1.56
X32.309Y55.279
X32.35Y50.51
X32.365Y56.295
X32.426Y25.322
X32.445Y16.949
X32.498Y52.0
X32.5Y53.41
X32.64Y7.39
X32.79Y23.2
X33.0Y67.515
X33.2Y18.43
X33.37Y15.36
X33.46Y9.33
X33.56Y51.03
X33.74Y49.16
X34.37Y19.29
X34.442Y23.849
X35.0Y56.43
X35.04Y16.42
X35.93Y18.26
X35.98Y20.09
X36.09Y27.01
X36.154Y21.55
X36.32Y14.724
X36.703Y57.935
X36.746Y10.739
X36.99Y8.52
X37.43Y7.25
X37.541Y33.925
X37.61Y1.63
X37.72Y41.48
X37.757Y19.741
X38.044Y30.101
X38.807Y35.875
X38.828Y39.174
X39.08Y67.02
X39.15Y1.233
X39.16Y13.44
X39.241Y57.935
X39.31Y32.0
X39.44Y25.378
X39.57Y62.01
X39.63Y29.24
X40.2Y63.12
X40.312Y36.092
X40.4Y12.97
X40.77Y1.54
X40.78Y7.6
X40.957Y56.787
X40.96Y47.322
X41.36Y26.26
X41.4Y21.257
X41.647Y64.039
X41.648Y65.138
X41.734Y23.125
X41.9Y24.35
X42.194Y27.457
X42.28Y28.85
X42.41Y56.43
X42.64Y17.002
X42.65Y47.25
X42.654Y20.671
X42.73Y7.12
X42.78Y45.72
X42.96Y22.2
X43.017Y23.794
X43.292Y44.093
X43.45Y14.52
X44.25Y31.81
X44.38Y33.54
X44.493Y7.586
X44.59Y29.95
X44.789Y42.696
X45.219Y6.85
X45.22Y39.08
X45.265Y55.663
X45.68Y1.6
X45.971Y60.245
X46.22Y64.22
X46.22Y15.81
X46.27Y17.61
X46.407Y36.243
X46.42Y61.93
X46.95Y63.32
X47.24Y68.0
X47.35Y14.85
X47.418Y66.252
X47.582Y39.233
X47.639Y1.295
X47.69Y17.27
X47.89Y62.46
X48.14Y64.19
X48.57Y16.23
X48.65Y54.93
X48.65Y51.72
X48.9Y48.21
X49.485Y30.245
X49.68Y46.73
X49.76Y26.29
X49.79Y27.63
X49.821Y17.442
X49.99Y14.93
X50.28Y11.88
X50.283Y9.203
X50.41Y5.64
X50.52Y1.84
X50.83Y4.21
X51.201Y15.936
X51.27Y68.04
X51.29Y7.7
X51.532Y47.02
X51.54Y11.71
X51.57Y9.65
X51.79Y17.53
X51.794Y39.898
X51.82Y62.76
X51.97Y3.13
X52.48Y37.93
X52.62Y14.93
X53.32Y16.72
X53.346Y50.752
X53.53Y1.59
X53.57Y36.74
X53.84Y3.21
X54.16Y29.23
X54.18Y27.64
X54.26Y30.68
X54.94Y22.99
X54.946Y53.133
X54.97Y63.37
X55.045Y48.27
X55.107Y34.853
X55.27Y64.98
X55.295Y46.288
X55.34Y17.82
X55.5Y45.251
X55.72Y21.37
X55.92Y55.15
X55.93Y2.71
X56.18Y66.5
X56.27Y67.91
X56.563Y56.882
X56.62Y63.63
X56.93Y59.14
X57.093Y61.789
X57.255Y48.329
X57.265Y13.162
X57.83Y16.12
X57.88Y1.79
X58.73Y3.6
X59.19Y11.8
X59.28Y9.1
X59.38Y13.36
X59.698Y7.097
X59.89Y1.73
X60.363Y53.58
X60.451Y5.549
X60.49Y34.59
X60.663Y62.965
X60.7Y59.12
X60.81Y22.223
X61.287Y9.313
X61.287Y7.431
X61.29Y66.75
X61.66Y3.632
X62.21Y64.7
X62.371Y59.396
X62.411Y56.28
X62.45Y61.4
X62.5Y67.81
X62.696Y19.781
X63.052Y50.742
X63.17Y7.18
X63.27Y35.58
X63.43Y23.37
X63.713Y4.754
X64.048Y9.481
X64.14Y1.4
X64.42Y18.43
X64.83Y13.13
X65.14Y3.04
X65.21Y7.22
X65.812Y34.892
X65.88Y28.25
X65.97Y32.3
X66.05Y25.47
X66.1Y50.65
X66.11Y11.93
X66.28Y41.54
X66.38Y58.93
X66.81Y60.25
X66.98Y48.7
X66.99Y62.39
X67.02Y46.8
X67.03Y65.47
X67.03Y52.26
X67.067Y63.966
X67.257Y44.273
X67.39Y67.29
X67.54Y1.35
X67.62Y15.28
X67.64Y61.29
X67.69Y54.73
X68.09Y23.251
X68.779Y51.131
X68.95Y48.09
X69.43Y13.44
X69.47Y3.11
X69.657Y52.887
X69.741Y55.355
X69.96Y38.38
X70.378Y33.395
X70.42Y1.65
X70.491Y15.257
X70.996Y47.492
X71.83Y50.38
X71.97Y14.06
X72.0Y54.56
X72.0Y52.678
X72.1Y57.811
X72.209Y62.315
X72.75Y41.61
X72.907Y1.944
X73.152Y9.154
X73.25Y15.65
X73.29Y24.21
X73.34Y46.59
X73.51Y44.71
X73.63Y4.86
X73.82Y3.38
X73.84Y48.78
X73.97Y42.87
X74.1Y7.93
X74.41Y11.83
X74.467Y53.808
X74.7Y57.811
X74.718Y51.549
X74.74Y24.02
X75.22Y38.12
X75.773Y3.326
X76.009Y20.544
X76.01Y15.65
X76.13Y25.51
X76.14Y5.28
X76.27Y1.46
X76.88Y66.866
X77.741Y46.629
X77.75Y8.34
X77.84Y12.58
X78.2Y4.13
X78.65Y55.75
X78.65Y51.69
X78.69Y49.73
X79.23Y2.02
X79.44Y22.16
X79.717Y62.746
X79.92Y24.42
X79.93Y12.72
X79.97Y21.05
X80.207Y39.733
X80.21Y4.97
X80.7Y55.4
X80.78Y65.77
X80.91Y19.93
X81.17Y31.86
X81.35Y33.33
X81.35Y3.13
X81.37Y53.22
X81.47Y27.49
X81.64Y21.046
X81.75Y50.13
X81.81Y59.58
X81.884Y39.972
X81.97Y43.492
X81.99Y8.79
X82.21Y1.35
X82.22Y46.37
X82.24Y6.89
X82.35Y4.69
X82.45Y24.485
X82.51Y32.92
X82.59Y19.87
X82.71Y34.34
X82.785Y17.383
X83.344Y62.724
X83.355Y35.579
X83.81Y31.24
X83.94Y8.4
X84.103Y57.868
X84.16Y6.2
X84.3Y3.05
X84.35Y26.91
X84.39Y24.98
X84.51Y44.35
X84.91Y62.19
X84.97Y59.89
X85.129Y63.727
X85.3Y53.01
X85.33Y55.28
X85.34Y7.56
X85.51Y49.91
X85.69Y17.38
X86.011Y51.214
X86.228Y8.986
X86.284Y1.513
X86.368Y3.771
X86.52Y62.67
X86.555Y54.644
X86.68Y57.72
X86.81Y6.53
X88.251Y64.141
X88.32Y4.36
X88.487Y1.82
X88.6Y25.51
X88.77Y5.92
X88.836Y17.662
X88.89Y15.99
X89.01Y26.8
X89.087Y20.172
X89.3Y28.49
X89.41Y9.58
X89.43Y52.98
X89.84Y18.64
X89.95Y57.7
X90.1Y4.38
X90.1Y2.82
X90.15Y54.6
X90.52Y26.3
X90.529Y59.454
X90.83Y6.03
X90.83Y1.32
X90.955Y17.327
X91.07Y8.54
X91.1Y24.89
X91.16Y67.9
X91.21Y22.46
X91.48Y20.42
X91.79Y19.17
X91.86Y33.59
X91.881Y34.621
X92.07Y3.97
X92.123Y7.365
X92.267Y62.278
X93.07Y59.04
X93.14Y1.71
X93.186Y19.921
X93.58Y63.48
X93.612Y3.464
X93.64Y16.2
X93.78Y13.66
X93.97Y18.16
X94.41Y31.997
X94.76Y11.65
X95.12Y14.75
X95.229Y2.878
X95.26Y1.29
X95.56Y31.997
X95.67Y67.82
X96.06Y41.461
X96.15Y16.39
X96.875Y12.598
X97.12Y64.13
X97.35Y9.64
X97.46Y2.74
X97.52Y14.91
X98.136Y1.543
X98.22Y8.15
X99.24Y10.73
X99.39Y3.68
X99.5Y13.6
X99.727Y60.352
X100.19Y8.57
X100.3Y67.74
X100.938Y6.813
X101.02Y4.22
X101.34Y12.01
X101.36Y1.38
X101.93Y61.58
X102.32Y9.99
X102.74Y5.81
X102.934Y62.862
X103.03Y2.3
X103.2Y7.65
X104.033Y3.634
X104.328Y60.854
X104.86Y67.78
X105.137Y8.074
X105.29Y1.54
X105.46Y5.89
X107.053Y64.365
X107.3Y3.72
X107.71Y1.25
X108.091Y5.475
X109.25Y60.55
X109.85Y3.63
X109.97Y62.4
X110.271Y67.549
X111.269Y5.6
X111.39Y1.33
X111.659Y60.626
X113.068Y2.84
X113.29Y63.21
X113.99Y5.6
X114.15Y67.7
X115.07Y62.86
X115.116Y60.876
X115.68Y6.25
X118.39Y60.462
X118.59Y62.78
T2
X4.09Y58.724
X4.09Y56.184
X4.09Y53.644
X4.09Y51.104
X4.09Y48.564
X4.09Y46.024
X4.09Y43.484
X4.09Y40.944
X4.09Y38.404
X4.09Y35.864
X4.09Y33.324
X4.09Y30.784
X4.09Y28.244
X4.09Y25.704
X4.09Y23.164
X4.09Y20.624
X4.09Y18.084
X4.09Y15.544
X4.09Y13.004
X4.09Y10.464
X115.9Y56.2
X115.9Y53.66
X115.9Y51.12
X115.9Y48.58
X115.9Y46.04
X115.9Y43.5
X115.9Y40.96
X115.9Y38.42
X115.9Y35.88
X115.9Y33.34
X115.9Y30.8
X115.9Y28.26
X115.9Y25.72
X115.9Y23.18
X115.9Y20.64
X115.9Y18.1
X115.9Y15.56
X115.9Y13.02
X115.9Y10.48
T0
M30
